{
  "source": "C:\\Users\\Peter\\Desktop\\stuff\\MIUN\\quantitative_research\\video_compression\\videos\\HEVC_CLASS_B\\BQTerrace_1920x1080_60.y4m",
  "output": "C:\\Users\\Peter\\Desktop\\stuff\\MIUN\\quantitative_research\\video_compression\\compressed_videos\\HEVC_CLASS_B\\av1\\8\\BQTerrace_1920x1080_60_av1.mkv",
  "codec": "av1",
  "ok": "Input #0, yuv4mpegpipe, from 'C:\\Users\\Peter\\Desktop\\stuff\\MIUN\\quantitative_research\\video_compression\\videos\\HEVC_CLASS_B\\BQTerrace_1920x1080_60.y4m':\n  Duration: 00:00:10.00, start: 0.000000, bitrate: 1492994 kb/s\n  Stream #0:0: Video: rawvideo (I420 / 0x30323449), yuv420p(progressive), 1920x1080, 60 fps, 60 tbr, 60 tbn\n[out#0/matroska @ 0000024cd3728ec0] Codec AVOption b:a (set bitrate (in bits/s)) has not been used for any stream. The most likely reason is either wrong type (e.g. a video option with no video streams) or that it is a private option of some decoder which was not actually used for any stream.\nStream mapping:\n  Stream #0:0 -> #0:0 (rawvideo (native) -> av1 (libsvtav1))\nPress [q] to stop, [?] for help\nSvt[info]: -------------------------------------------\nSvt[info]: SVT [version]:\tSVT-AV1 Encoder Lib v3.1.0-19-g6ecfe8ec\nSvt[info]: SVT [build]  :\tGCC 15.2.0\t 64 bit\nSvt[info]: LIB Build date: Aug 17 2025 11:37:13\nSvt[info]: -------------------------------------------\n[libsvtav1 @ 0000024cd372c080] Specified chroma sample location center is unsupported on the AV1 bit stream level. Usage of a container that allows passing this information - such as Matroska - is recommended.\nSvt[info]: Level of Parallelism: 5\nSvt[info]: Number of PPCS 93\nSvt[info]: [asm level on system : up to avx2]\nSvt[info]: [asm level selected : up to avx2]\nSvt[info]: -------------------------------------------\nSvt[info]: SVT [config]: main profile\ttier (auto)\tlevel (auto)\nSvt[info]: SVT [config]: width / height / fps numerator / fps denominator \t\t: 1920 / 1080 / 60 / 1\nSvt[info]: SVT [config]: bit-depth / color format \t\t\t\t\t: 8 / YUV420\nSvt[info]: SVT [config]: preset / tune / pred struct \t\t\t\t\t: 4 / PSNR / random access\nSvt[info]: SVT [config]: gop size / mini-gop size / key-frame type \t\t\t: 321 / 16 / key frame\nSvt[info]: SVT [config]: BRC mode / target bitrate (kbps)\t\t\t\t: VBR / 8000 \nSvt[info]: SVT [config]: AQ mode / Variance Boost \t\t\t\t\t: 2 / 0\nSvt[info]: SVT [config]: sharpness / luminance-based QP bias \t\t\t\t: 0 / 0\nSvt[info]: SVT [config]: QP scale compress strength \t\t\t\t\t: 0\nSvt[info]: -------------------------------------------\nOutput #0, matroska, to 'C:\\Users\\Peter\\Desktop\\stuff\\MIUN\\quantitative_research\\video_compression\\compressed_videos\\HEVC_CLASS_B\\av1\\8\\BQTerrace_1920x1080_60_av1.mkv':\n  Metadata:\n    encoder         : Lavf62.3.100\n  Stream #0:0: Video: av1 (AV01 / 0x31305641), yuv420p(tv, progressive), 1920x1080, q=2-31, 8000 kb/s, 60 fps, 1k tbn\n    Metadata:\n      encoder         : Lavc62.11.100 libsvtav1\n    Side data:\n      cpb: bitrate max/min/avg: 0/0/8000000 buffer size: 8000000 vbv_delay: N/A\nframe=    0 fps=0.0 q=0.0 size=       0KiB time=N/A bitrate=N/A speed=N/A elapsed=0:00:02.29    \nframe=    0 fps=0.0 q=0.0 size=       0KiB time=N/A bitrate=N/A speed=N/A elapsed=0:00:03.30    \nframe=    0 fps=0.0 q=0.0 size=       0KiB time=N/A bitrate=N/A speed=N/A elapsed=0:00:04.21    \nframe=    0 fps=0.0 q=0.0 size=       0KiB time=N/A bitrate=N/A speed=N/A elapsed=0:00:05.24    \nframe=    0 fps=0.0 q=0.0 size=       0KiB time=N/A bitrate=N/A speed=N/A elapsed=0:00:06.52    \nframe=    0 fps=0.0 q=0.0 size=       0KiB time=N/A bitrate=N/A speed=N/A elapsed=0:00:07.21    \nframe=    0 fps=0.0 q=0.0 size=       0KiB time=N/A bitrate=N/A speed=N/A elapsed=0:00:07.74    \nframe=    0 fps=0.0 q=0.0 size=       0KiB time=N/A bitrate=N/A speed=N/A elapsed=0:00:08.26    \nframe=    0 fps=0.0 q=0.0 size=       0KiB time=N/A bitrate=N/A speed=N/A elapsed=0:00:08.80    \nframe=    0 fps=0.0 q=0.0 size=       0KiB time=N/A bitrate=N/A speed=N/A elapsed=0:00:09.31    \nframe=    0 fps=0.0 q=0.0 size=       0KiB time=N/A bitrate=N/A speed=N/A elapsed=0:00:09.83    \nframe=    0 fps=0.0 q=0.0 size=       0KiB time=N/A bitrate=N/A speed=N/A elapsed=0:00:10.34    \nframe=    0 fps=0.0 q=0.0 size=       0KiB time=N/A bitrate=N/A speed=N/A elapsed=0:00:10.96    \nframe=    0 fps=0.0 q=0.0 size=       0KiB time=N/A bitrate=N/A speed=N/A elapsed=0:00:11.54    \nframe=    0 fps=0.0 q=0.0 size=       0KiB time=N/A bitrate=N/A speed=N/A elapsed=0:00:12.06    \nframe=    0 fps=0.0 q=0.0 size=       0KiB time=N/A bitrate=N/A speed=N/A elapsed=0:00:12.63    \nframe=    0 fps=0.0 q=0.0 size=       0KiB time=N/A bitrate=N/A speed=N/A elapsed=0:00:13.18    \nframe=    0 fps=0.0 q=0.0 size=       0KiB time=N/A bitrate=N/A speed=N/A elapsed=0:00:13.70    \nframe=    1 fps=0.1 q=10.0 size=       1KiB time=00:00:00.00 bitrate=N/A speed=   0x elapsed=0:00:14.29    \nframe=    1 fps=0.1 q=10.0 size=       1KiB time=00:00:00.00 bitrate=N/A speed=   0x elapsed=0:00:14.81    \nframe=    1 fps=0.1 q=10.0 size=       1KiB time=00:00:00.00 bitrate=N/A speed=   0x elapsed=0:00:15.33    \nframe=    1 fps=0.1 q=10.0 size=       1KiB time=00:00:00.00 bitrate=N/A speed=   0x elapsed=0:00:15.95    \nframe=    1 fps=0.1 q=10.0 size=       1KiB time=00:00:00.00 bitrate=N/A speed=   0x elapsed=0:00:16.49    \nframe=    1 fps=0.1 q=10.0 size=       1KiB time=00:00:00.00 bitrate=N/A speed=   0x elapsed=0:00:17.00    \nframe=    1 fps=0.1 q=10.0 size=       1KiB time=00:00:00.00 bitrate=N/A speed=   0x elapsed=0:00:17.52    \nframe=    1 fps=0.1 q=10.0 size=       1KiB time=00:00:00.00 bitrate=N/A speed=   0x elapsed=0:00:18.10    \nframe=    1 fps=0.1 q=10.0 size=       1KiB time=00:00:00.00 bitrate=N/A speed=   0x elapsed=0:00:18.61    \nframe=    1 fps=0.1 q=10.0 size=       1KiB time=00:00:00.00 bitrate=N/A speed=   0x elapsed=0:00:19.18    \nframe=    1 fps=0.1 q=10.0 size=       1KiB time=00:00:00.00 bitrate=N/A speed=   0x elapsed=0:00:19.70    \nframe=    1 fps=0.0 q=10.0 size=       1KiB time=00:00:00.00 bitrate=N/A speed=   0x elapsed=0:00:20.25    \nframe=    1 fps=0.0 q=10.0 size=       1KiB time=00:00:00.00 bitrate=N/A speed=   0x elapsed=0:00:20.83    \nframe=    2 fps=0.1 q=38.0 size=       1KiB time=00:00:00.00 bitrate=N/A speed=   0x elapsed=0:00:21.36    \nframe=    3 fps=0.1 q=35.0 size=       1KiB time=00:00:00.03 bitrate= 134.4kbits/s speed=0.00152x elapsed=0:00:21.97    \nframe=    4 fps=0.2 q=38.0 size=       1KiB time=00:00:00.03 bitrate= 134.4kbits/s speed=0.00148x elapsed=0:00:22.59    \nframe=    5 fps=0.2 q=33.0 size=       1KiB time=00:00:00.06 bitrate=  67.2kbits/s speed=0.00288x elapsed=0:00:23.18    \nframe=    6 fps=0.3 q=34.0 size=       1KiB time=00:00:00.08 bitrate=  53.8kbits/s speed=0.00351x elapsed=0:00:23.74    \nframe=    7 fps=0.3 q=34.0 size=       1KiB time=00:00:00.10 bitrate=  44.8kbits/s speed=0.00411x elapsed=0:00:24.32    \nframe=    7 fps=0.3 q=34.0 size=       1KiB time=00:00:00.10 bitrate=  44.8kbits/s speed=0.00403x elapsed=0:00:24.82    \nframe=    8 fps=0.3 q=34.0 size=       1KiB time=00:00:00.11 bitrate=  38.4kbits/s speed=0.0046x elapsed=0:00:25.35    \nframe=    9 fps=0.3 q=29.0 size=       1KiB time=00:00:00.13 bitrate=  33.6kbits/s speed=0.00515x elapsed=0:00:25.89    \nframe=   11 fps=0.4 q=34.0 size=       1KiB time=00:00:00.16 bitrate=  26.9kbits/s speed=0.00631x elapsed=0:00:26.40    \nframe=   11 fps=0.4 q=34.0 size=       1KiB time=00:00:00.16 bitrate=  26.9kbits/s speed=0.00619x elapsed=0:00:26.92    \nframe=   12 fps=0.4 q=33.0 size=       1KiB time=00:00:00.18 bitrate=  24.4kbits/s speed=0.00668x elapsed=0:00:27.44    \nframe=   14 fps=0.5 q=32.0 size=       1KiB time=00:00:00.20 bitrate=  22.4kbits/s speed=0.00715x elapsed=0:00:27.97    \nframe=   14 fps=0.5 q=32.0 size=       1KiB time=00:00:00.21 bitrate=  20.7kbits/s speed=0.00758x elapsed=0:00:28.56    \nframe=   15 fps=0.5 q=34.0 size=       1KiB time=00:00:00.23 bitrate=  19.2kbits/s speed=0.00802x elapsed=0:00:29.10    \nframe=   16 fps=0.5 q=32.0 size=       1KiB time=00:00:00.25 bitrate=  17.9kbits/s speed=0.00843x elapsed=0:00:29.67    \nframe=   16 fps=0.5 q=32.0 size=       1KiB time=00:00:00.25 bitrate=  17.9kbits/s speed=0.00826x elapsed=0:00:30.27    \nframe=   17 fps=0.6 q=18.0 size=       1KiB time=00:00:00.26 bitrate=  16.8kbits/s speed=0.00865x elapsed=0:00:30.82    \nframe=   19 fps=0.6 q=31.0 size=       1KiB time=00:00:00.30 bitrate=  14.9kbits/s speed=0.00957x elapsed=0:00:31.36    \nframe=   19 fps=0.6 q=31.0 size=       1KiB time=00:00:00.30 bitrate=  14.9kbits/s speed=0.0094x elapsed=0:00:31.92    \nframe=   19 fps=0.6 q=31.0 size=       1KiB time=00:00:00.30 bitrate=  14.9kbits/s speed=0.00924x elapsed=0:00:32.45    \nframe=   20 fps=0.6 q=29.0 size=       1KiB time=00:00:00.31 bitrate=  14.1kbits/s speed=0.00959x elapsed=0:00:33.01    \nframe=   22 fps=0.7 q=29.0 size=       1KiB time=00:00:00.35 bitrate=  12.8kbits/s speed=0.0104x elapsed=0:00:33.62    \nframe=   22 fps=0.6 q=29.0 size=       1KiB time=00:00:00.35 bitrate=  12.8kbits/s speed=0.0102x elapsed=0:00:34.15    \nframe=   23 fps=0.7 q=31.0 size=       1KiB time=00:00:00.36 bitrate=  12.2kbits/s speed=0.0106x elapsed=0:00:34.66    \nframe=   23 fps=0.7 q=31.0 size=       1KiB time=00:00:00.36 bitrate=  12.2kbits/s speed=0.0104x elapsed=0:00:35.18    \nframe=   23 fps=0.6 q=31.0 size=       1KiB time=00:00:00.36 bitrate=  12.2kbits/s speed=0.0103x elapsed=0:00:35.70    \nframe=   23 fps=0.6 q=31.0 size=       1KiB time=00:00:00.36 bitrate=  12.2kbits/s speed=0.0101x elapsed=0:00:36.21    \nframe=   24 fps=0.7 q=27.0 size=       1KiB time=00:00:00.38 bitrate=  11.7kbits/s speed=0.0104x elapsed=0:00:36.73    \nframe=   24 fps=0.6 q=27.0 size=       1KiB time=00:00:00.38 bitrate=  11.7kbits/s speed=0.0103x elapsed=0:00:37.24    \nframe=   24 fps=0.6 q=27.0 size=       1KiB time=00:00:00.38 bitrate=  11.7kbits/s speed=0.0102x elapsed=0:00:37.75    \nframe=   24 fps=0.6 q=27.0 size=       1KiB time=00:00:00.38 bitrate=  11.7kbits/s speed=0.01x elapsed=0:00:38.26    \nframe=   25 fps=0.6 q=26.0 size=       1KiB time=00:00:00.40 bitrate=  11.2kbits/s speed=0.0103x elapsed=0:00:38.79    \nframe=   27 fps=0.7 q=31.0 size=       1KiB time=00:00:00.43 bitrate=  10.3kbits/s speed=0.011x elapsed=0:00:39.30    \nframe=   28 fps=0.7 q=27.0 size=       1KiB time=00:00:00.45 bitrate=  10.0kbits/s speed=0.0113x elapsed=0:00:39.81    \nframe=   28 fps=0.7 q=27.0 size=       1KiB time=00:00:00.45 bitrate=  10.0kbits/s speed=0.0112x elapsed=0:00:40.33    \nframe=   29 fps=0.7 q=30.0 size=       1KiB time=00:00:00.46 bitrate=   9.6kbits/s speed=0.0114x elapsed=0:00:40.84    \nframe=   29 fps=0.7 q=30.0 size=       1KiB time=00:00:00.46 bitrate=   9.6kbits/s speed=0.0113x elapsed=0:00:41.36    \nframe=   30 fps=0.7 q=31.0 size=       1KiB time=00:00:00.48 bitrate=   9.3kbits/s speed=0.0115x elapsed=0:00:41.88    \nframe=   32 fps=0.8 q=29.0 size=       1KiB time=00:00:00.51 bitrate=   8.7kbits/s speed=0.0122x elapsed=0:00:42.40    \nframe=   33 fps=0.8 q=20.0 size=       1KiB time=00:00:00.53 bitrate=   8.4kbits/s speed=0.0124x elapsed=0:00:42.90    \nframe=   34 fps=0.8 q=30.0 size=       1KiB time=00:00:00.55 bitrate=   8.1kbits/s speed=0.0127x elapsed=0:00:43.42    \nframe=   34 fps=0.8 q=30.0 size=       1KiB time=00:00:00.55 bitrate=   8.1kbits/s speed=0.0125x elapsed=0:00:43.95    \nframe=   35 fps=0.8 q=33.0 size=       1KiB time=00:00:00.56 bitrate=   7.9kbits/s speed=0.0127x elapsed=0:00:44.46    \nframe=   36 fps=0.8 q=30.0 size=       1KiB time=00:00:00.58 bitrate=   7.7kbits/s speed=0.013x elapsed=0:00:44.97    \nframe=   37 fps=0.8 q=31.0 size=       1KiB time=00:00:00.60 bitrate=   7.5kbits/s speed=0.0132x elapsed=0:00:45.49    \nframe=   39 fps=0.8 q=33.0 size=       1KiB time=00:00:00.63 bitrate=   7.1kbits/s speed=0.0138x elapsed=0:00:46.00    \nframe=   39 fps=0.8 q=33.0 size=       1KiB time=00:00:00.63 bitrate=   7.1kbits/s speed=0.0136x elapsed=0:00:46.52    \nframe=   39 fps=0.8 q=33.0 size=       1KiB time=00:00:00.63 bitrate=   7.1kbits/s speed=0.0135x elapsed=0:00:47.04    \nframe=   40 fps=0.8 q=30.0 size=       1KiB time=00:00:00.65 bitrate=   6.9kbits/s speed=0.0137x elapsed=0:00:47.56    \nframe=   40 fps=0.8 q=30.0 size=       1KiB time=00:00:00.65 bitrate=   6.9kbits/s speed=0.0135x elapsed=0:00:48.07    \nframe=   40 fps=0.8 q=30.0 size=       1KiB time=00:00:00.65 bitrate=   6.9kbits/s speed=0.0134x elapsed=0:00:48.57    \nframe=   41 fps=0.8 q=23.0 size=       1KiB time=00:00:00.66 bitrate=   6.7kbits/s speed=0.0136x elapsed=0:00:49.10    \nframe=   42 fps=0.8 q=29.0 size=       1KiB time=00:00:00.68 bitrate=   6.6kbits/s speed=0.0138x elapsed=0:00:49.62    \nframe=   44 fps=0.9 q=30.0 size=       1KiB time=00:00:00.71 bitrate=   6.3kbits/s speed=0.0143x elapsed=0:00:50.13    \nframe=   44 fps=0.9 q=30.0 size=       1KiB time=00:00:00.71 bitrate=   6.3kbits/s speed=0.0142x elapsed=0:00:50.64    \nframe=   44 fps=0.9 q=30.0 size=       1KiB time=00:00:00.71 bitrate=   6.3kbits/s speed=0.014x elapsed=0:00:51.15    \nframe=   45 fps=0.9 q=29.0 size=       1KiB time=00:00:00.73 bitrate=   6.1kbits/s speed=0.0142x elapsed=0:00:51.67    \nframe=   45 fps=0.9 q=29.0 size=       1KiB time=00:00:00.73 bitrate=   6.1kbits/s speed=0.0141x elapsed=0:00:52.19    \nframe=   46 fps=0.9 q=30.0 size=       1KiB time=00:00:00.75 bitrate=   6.0kbits/s speed=0.0142x elapsed=0:00:52.71    \nframe=   47 fps=0.9 q=30.0 size=       1KiB time=00:00:00.76 bitrate=   5.8kbits/s speed=0.0144x elapsed=0:00:53.22    \nframe=   48 fps=0.9 q=30.0 size=       1KiB time=00:00:00.78 bitrate=   5.7kbits/s speed=0.0146x elapsed=0:00:53.74    \nframe=   48 fps=0.9 q=30.0 size=       1KiB time=00:00:00.78 bitrate=   5.7kbits/s speed=0.0144x elapsed=0:00:54.25    \nframe=   49 fps=0.9 q=14.0 size=       1KiB time=00:00:00.80 bitrate=   5.6kbits/s speed=0.0146x elapsed=0:00:54.77    \nframe=   50 fps=0.9 q=31.0 size=       1KiB time=00:00:00.81 bitrate=   5.5kbits/s speed=0.0148x elapsed=0:00:55.28    \nframe=   51 fps=0.9 q=31.0 size=       1KiB time=00:00:00.83 bitrate=   5.4kbits/s speed=0.0149x elapsed=0:00:55.80    \nframe=   51 fps=0.9 q=31.0 size=       1KiB time=00:00:00.83 bitrate=   5.4kbits/s speed=0.0148x elapsed=0:00:56.31    \nframe=   51 fps=0.9 q=31.0 size=       1KiB time=00:00:00.83 bitrate=   5.4kbits/s speed=0.0147x elapsed=0:00:56.83    \nframe=   51 fps=0.9 q=31.0 size=       1KiB time=00:00:00.83 bitrate=   5.4kbits/s speed=0.0145x elapsed=0:00:57.34    \nframe=   52 fps=0.9 q=30.0 size=       1KiB time=00:00:00.85 bitrate=   5.3kbits/s speed=0.0147x elapsed=0:00:57.87    \nframe=   54 fps=0.9 q=30.0 size=       1KiB time=00:00:00.88 bitrate=   5.1kbits/s speed=0.0151x elapsed=0:00:58.37    \nframe=   55 fps=0.9 q=31.0 size=       1KiB time=00:00:00.90 bitrate=   5.0kbits/s speed=0.0153x elapsed=0:00:58.89    \nframe=   55 fps=0.9 q=31.0 size=       1KiB time=00:00:00.90 bitrate=   5.0kbits/s speed=0.0151x elapsed=0:00:59.41    \nframe=   55 fps=0.9 q=31.0 size=       1KiB time=00:00:00.90 bitrate=   5.0kbits/s speed=0.015x elapsed=0:00:59.92    \nframe=   55 fps=0.9 q=31.0 size=       1KiB time=00:00:00.90 bitrate=   5.0kbits/s speed=0.0149x elapsed=0:01:00.43    \nframe=   56 fps=0.9 q=29.0 size=       1KiB time=00:00:00.91 bitrate=   4.9kbits/s speed=0.015x elapsed=0:01:00.95    \nframe=   56 fps=0.9 q=29.0 size=       1KiB time=00:00:00.91 bitrate=   4.9kbits/s speed=0.0149x elapsed=0:01:01.47    \nframe=   56 fps=0.9 q=29.0 size=       1KiB time=00:00:00.91 bitrate=   4.9kbits/s speed=0.0148x elapsed=0:01:01.99    \nframe=   58 fps=0.9 q=26.0 size=       1KiB time=00:00:00.93 bitrate=   4.8kbits/s speed=0.0149x elapsed=0:01:02.57    \nframe=   59 fps=0.9 q=32.0 size=       1KiB time=00:00:00.96 bitrate=   4.6kbits/s speed=0.0153x elapsed=0:01:03.19    \nframe=   60 fps=0.9 q=27.0 size=       1KiB time=00:00:00.98 bitrate=   4.6kbits/s speed=0.0154x elapsed=0:01:03.74    \nframe=   61 fps=0.9 q=29.0 size=       1KiB time=00:00:01.00 bitrate=   4.5kbits/s speed=0.0156x elapsed=0:01:04.29    \nframe=   61 fps=0.9 q=29.0 size=       1KiB time=00:00:01.00 bitrate=   4.5kbits/s speed=0.0154x elapsed=0:01:04.81    \nframe=   62 fps=0.9 q=28.0 size=       1KiB time=00:00:01.01 bitrate=   4.4kbits/s speed=0.0156x elapsed=0:01:05.33    \nframe=   63 fps=1.0 q=31.0 size=       1KiB time=00:00:01.03 bitrate=   4.3kbits/s speed=0.0157x elapsed=0:01:05.85    \nframe=   64 fps=1.0 q=27.0 size=       1KiB time=00:00:01.05 bitrate=   4.3kbits/s speed=0.0158x elapsed=0:01:06.36    \nframe=   64 fps=1.0 q=27.0 size=       1KiB time=00:00:01.05 bitrate=   4.3kbits/s speed=0.0157x elapsed=0:01:06.87    \nframe=   65 fps=1.0 q=10.0 size=       1KiB time=00:00:01.06 bitrate=   4.2kbits/s speed=0.0158x elapsed=0:01:07.39    \nframe=   66 fps=1.0 q=28.0 size=       1KiB time=00:00:01.08 bitrate=   4.1kbits/s speed=0.016x elapsed=0:01:07.91    \nframe=   66 fps=1.0 q=28.0 size=       1KiB time=00:00:01.08 bitrate=   4.1kbits/s speed=0.0158x elapsed=0:01:08.43    \nframe=   67 fps=1.0 q=31.0 size=       1KiB time=00:00:01.10 bitrate=   4.1kbits/s speed=0.016x elapsed=0:01:08.94    \nframe=   68 fps=1.0 q=28.0 size=       1KiB time=00:00:01.11 bitrate=   4.0kbits/s speed=0.0161x elapsed=0:01:09.46    \nframe=   69 fps=1.0 q=31.0 size=       1KiB time=00:00:01.13 bitrate=   4.0kbits/s speed=0.0162x elapsed=0:01:09.97    \nframe=   71 fps=1.0 q=31.0 size=       1KiB time=00:00:01.16 bitrate=   3.8kbits/s speed=0.0166x elapsed=0:01:10.49    \nframe=   71 fps=1.0 q=31.0 size=       1KiB time=00:00:01.16 bitrate=   3.8kbits/s speed=0.0164x elapsed=0:01:11.00    \nframe=   71 fps=1.0 q=31.0 size=       1KiB time=00:00:01.16 bitrate=   3.8kbits/s speed=0.0163x elapsed=0:01:11.52    \nframe=   72 fps=1.0 q=28.0 size=       1KiB time=00:00:01.18 bitrate=   3.8kbits/s speed=0.0164x elapsed=0:01:12.03    \nframe=   72 fps=1.0 q=28.0 size=       1KiB time=00:00:01.18 bitrate=   3.8kbits/s speed=0.0163x elapsed=0:01:12.55    \nframe=   72 fps=1.0 q=28.0 size=       1KiB time=00:00:01.18 bitrate=   3.8kbits/s speed=0.0162x elapsed=0:01:13.06    \nframe=   73 fps=1.0 q=24.0 size=       1KiB time=00:00:01.20 bitrate=   3.7kbits/s speed=0.0163x elapsed=0:01:13.58    \nframe=   74 fps=1.0 q=30.0 size=       1KiB time=00:00:01.21 bitrate=   3.7kbits/s speed=0.0164x elapsed=0:01:14.09    \nframe=   74 fps=1.0 q=30.0 size=       1KiB time=00:00:01.21 bitrate=   3.7kbits/s speed=0.0163x elapsed=0:01:14.61    \nframe=   76 fps=1.0 q=30.0 size=       1KiB time=00:00:01.25 bitrate=   3.6kbits/s speed=0.0166x elapsed=0:01:15.12    \nframe=   76 fps=1.0 q=30.0 size=       1KiB time=00:00:01.25 bitrate=   3.6kbits/s speed=0.0165x elapsed=0:01:15.65    \nframe=   77 fps=1.0 q=29.0 size=       1KiB time=00:00:01.26 bitrate=   3.5kbits/s speed=0.0166x elapsed=0:01:16.15    \nframe=   78 fps=1.0 q=30.0 size=       1KiB time=00:00:01.28 bitrate=   3.5kbits/s speed=0.0167x elapsed=0:01:16.68    \nframe=   79 fps=1.0 q=31.0 size=       1KiB time=00:00:01.30 bitrate=   3.4kbits/s speed=0.0168x elapsed=0:01:17.19    \nframe=   80 fps=1.0 q=30.0 size=       1KiB time=00:00:01.31 bitrate=   3.4kbits/s speed=0.0169x elapsed=0:01:17.71    \nframe=   80 fps=1.0 q=30.0 size=       1KiB time=00:00:01.31 bitrate=   3.4kbits/s speed=0.0168x elapsed=0:01:18.22    \nframe=   80 fps=1.0 q=30.0 size=       1KiB time=00:00:01.31 bitrate=   3.4kbits/s speed=0.0167x elapsed=0:01:18.74    \nframe=   81 fps=1.0 q=8.0 size=       1KiB time=00:00:01.33 bitrate=   3.4kbits/s speed=0.0168x elapsed=0:01:19.25    \nframe=   82 fps=1.0 q=29.0 size=       1KiB time=00:00:01.35 bitrate=   3.3kbits/s speed=0.0169x elapsed=0:01:19.78    \nframe=   82 fps=1.0 q=29.0 size=       1KiB time=00:00:01.35 bitrate=   3.3kbits/s speed=0.0168x elapsed=0:01:20.29    \nframe=   83 fps=1.0 q=30.0 size=       1KiB time=00:00:01.36 bitrate=   3.3kbits/s speed=0.0169x elapsed=0:01:20.82    \nframe=   84 fps=1.0 q=29.0 size=       1KiB time=00:00:01.38 bitrate=   3.2kbits/s speed=0.017x elapsed=0:01:21.33    \nframe=   84 fps=1.0 q=29.0 size=       1KiB time=00:00:01.38 bitrate=   3.2kbits/s speed=0.0169x elapsed=0:01:21.85    \nframe=   85 fps=1.0 q=31.0 size=       1KiB time=00:00:01.40 bitrate=   3.2kbits/s speed=0.017x elapsed=0:01:22.37    \nframe=   85 fps=1.0 q=31.0 size=       1KiB time=00:00:01.40 bitrate=   3.2kbits/s speed=0.0169x elapsed=0:01:22.88    \nframe=   86 fps=1.0 q=30.0 size=       1KiB time=00:00:01.41 bitrate=   3.2kbits/s speed=0.017x elapsed=0:01:23.40    \nframe=   87 fps=1.0 q=30.0 size=       1KiB time=00:00:01.43 bitrate=   3.1kbits/s speed=0.0171x elapsed=0:01:23.91    \nframe=   87 fps=1.0 q=30.0 size=       1KiB time=00:00:01.43 bitrate=   3.1kbits/s speed=0.017x elapsed=0:01:24.43    \nframe=   87 fps=1.0 q=30.0 size=       1KiB time=00:00:01.43 bitrate=   3.1kbits/s speed=0.0169x elapsed=0:01:24.95    \nframe=   87 fps=1.0 q=30.0 size=       1KiB time=00:00:01.43 bitrate=   3.1kbits/s speed=0.0168x elapsed=0:01:25.46    \nframe=   88 fps=1.0 q=30.0 size=       1KiB time=00:00:01.45 bitrate=   3.1kbits/s speed=0.0169x elapsed=0:01:25.98    \nframe=   88 fps=1.0 q=30.0 size=       1KiB time=00:00:01.45 bitrate=   3.1kbits/s speed=0.0168x elapsed=0:01:26.51    \nframe=   88 fps=1.0 q=30.0 size=       1KiB time=00:00:01.45 bitrate=   3.1kbits/s speed=0.0167x elapsed=0:01:27.02    \nframe=   89 fps=1.0 q=23.0 size=       1KiB time=00:00:01.46 bitrate=   3.1kbits/s speed=0.0168x elapsed=0:01:27.53    \nframe=   90 fps=1.0 q=31.0 size=       1KiB time=00:00:01.48 bitrate=   3.0kbits/s speed=0.0168x elapsed=0:01:28.05    \nframe=   92 fps=1.0 q=31.0 size=       1KiB time=00:00:01.51 bitrate=   3.0kbits/s speed=0.0171x elapsed=0:01:28.57    \nframe=   92 fps=1.0 q=31.0 size=       1KiB time=00:00:01.51 bitrate=   3.0kbits/s speed=0.017x elapsed=0:01:29.09    \nframe=   92 fps=1.0 q=31.0 size=       1KiB time=00:00:01.51 bitrate=   3.0kbits/s speed=0.0169x elapsed=0:01:29.59    \nframe=   93 fps=1.0 q=29.0 size=       1KiB time=00:00:01.53 bitrate=   2.9kbits/s speed=0.017x elapsed=0:01:30.12    \nframe=   94 fps=1.0 q=30.0 size=       1KiB time=00:00:01.55 bitrate=   2.9kbits/s speed=0.0171x elapsed=0:01:30.63    \nframe=   94 fps=1.0 q=30.0 size=       1KiB time=00:00:01.55 bitrate=   2.9kbits/s speed=0.017x elapsed=0:01:31.15    \nframe=   95 fps=1.0 q=30.0 size=       1KiB time=00:00:01.56 bitrate=   2.9kbits/s speed=0.0171x elapsed=0:01:31.66    \nframe=   96 fps=1.0 q=30.0 size=       1KiB time=00:00:01.58 bitrate=   2.8kbits/s speed=0.0172x elapsed=0:01:32.18    \nframe=   96 fps=1.0 q=30.0 size=       1KiB time=00:00:01.58 bitrate=   2.8kbits/s speed=0.0171x elapsed=0:01:32.69    \nframe=   96 fps=1.0 q=30.0 size=       1KiB time=00:00:01.58 bitrate=   2.8kbits/s speed=0.017x elapsed=0:01:33.20    \nframe=   97 fps=1.0 q=10.0 size=       1KiB time=00:00:01.60 bitrate=   2.8kbits/s speed=0.0171x elapsed=0:01:33.72    \nframe=   97 fps=1.0 q=10.0 size=       1KiB time=00:00:01.60 bitrate=   2.8kbits/s speed=0.017x elapsed=0:01:34.25    \nframe=   99 fps=1.0 q=31.0 size=       1KiB time=00:00:01.63 bitrate=   2.7kbits/s speed=0.0172x elapsed=0:01:34.75    \nframe=  100 fps=1.0 q=31.0 size=       1KiB time=00:00:01.65 bitrate=   2.7kbits/s speed=0.0173x elapsed=0:01:35.26    \nframe=  101 fps=1.1 q=31.0 size=       1KiB time=00:00:01.66 bitrate=   2.7kbits/s speed=0.0174x elapsed=0:01:35.78    \nframe=  102 fps=1.1 q=31.0 size=       1KiB time=00:00:01.68 bitrate=   2.7kbits/s speed=0.0175x elapsed=0:01:36.40    \nframe=  103 fps=1.1 q=31.0 size=       1KiB time=00:00:01.70 bitrate=   2.6kbits/s speed=0.0175x elapsed=0:01:37.09    \nframe=  103 fps=1.1 q=31.0 size=       1KiB time=00:00:01.70 bitrate=   2.6kbits/s speed=0.0174x elapsed=0:01:37.91    \nframe=  104 fps=1.1 q=31.0 size=       1KiB time=00:00:01.71 bitrate=   2.6kbits/s speed=0.0174x elapsed=0:01:38.82    \nframe=  104 fps=1.0 q=31.0 size=       1KiB time=00:00:01.71 bitrate=   2.6kbits/s speed=0.0173x elapsed=0:01:39.38    \nframe=  104 fps=1.0 q=31.0 size=       1KiB time=00:00:01.71 bitrate=   2.6kbits/s speed=0.0172x elapsed=0:01:40.02    \nframe=  105 fps=1.0 q=20.0 size=       1KiB time=00:00:01.73 bitrate=   2.6kbits/s speed=0.0172x elapsed=0:01:40.56    \nframe=  106 fps=1.0 q=31.0 size=       1KiB time=00:00:01.75 bitrate=   2.6kbits/s speed=0.0173x elapsed=0:01:41.12    \nframe=  106 fps=1.0 q=31.0 size=       1KiB time=00:00:01.75 bitrate=   2.6kbits/s speed=0.0172x elapsed=0:01:41.65    \nframe=  107 fps=1.0 q=31.0 size=       1KiB time=00:00:01.76 bitrate=   2.5kbits/s speed=0.0173x elapsed=0:01:42.31    \nframe=  107 fps=1.0 q=31.0 size=       1KiB time=00:00:01.76 bitrate=   2.5kbits/s speed=0.0172x elapsed=0:01:42.83    \nframe=  108 fps=1.0 q=26.0 size=       1KiB time=00:00:01.78 bitrate=   2.5kbits/s speed=0.0173x elapsed=0:01:43.35    \nframe=  109 fps=1.0 q=30.0 size=       1KiB time=00:00:01.80 bitrate=   2.5kbits/s speed=0.0173x elapsed=0:01:43.86    \nframe=  111 fps=1.1 q=31.0 size=       1KiB time=00:00:01.83 bitrate=   2.4kbits/s speed=0.0176x elapsed=0:01:44.38    \nframe=  111 fps=1.1 q=31.0 size=       1KiB time=00:00:01.83 bitrate=   2.4kbits/s speed=0.0175x elapsed=0:01:44.89    \nframe=  112 fps=1.1 q=31.0 size=       1KiB time=00:00:01.85 bitrate=   2.4kbits/s speed=0.0175x elapsed=0:01:45.42    \nframe=  113 fps=1.1 q=10.0 size=       1KiB time=00:00:01.86 bitrate=   2.4kbits/s speed=0.0176x elapsed=0:01:45.92    \nframe=  113 fps=1.1 q=10.0 size=       1KiB time=00:00:01.86 bitrate=   2.4kbits/s speed=0.0175x elapsed=0:01:46.44    \nframe=  115 fps=1.1 q=31.0 size=       1KiB time=00:00:01.90 bitrate=   2.4kbits/s speed=0.0178x elapsed=0:01:46.95    \nframe=  115 fps=1.1 q=31.0 size=       1KiB time=00:00:01.90 bitrate=   2.4kbits/s speed=0.0177x elapsed=0:01:47.47    \nframe=  115 fps=1.1 q=31.0 size=       1KiB time=00:00:01.90 bitrate=   2.4kbits/s speed=0.0176x elapsed=0:01:47.99    \nframe=  116 fps=1.1 q=31.0 size=       1KiB time=00:00:01.91 bitrate=   2.3kbits/s speed=0.0177x elapsed=0:01:48.51    \nframe=  116 fps=1.1 q=31.0 size=       1KiB time=00:00:01.91 bitrate=   2.3kbits/s speed=0.0176x elapsed=0:01:49.02    \nframe=  117 fps=1.1 q=31.0 size=       1KiB time=00:00:01.93 bitrate=   2.3kbits/s speed=0.0176x elapsed=0:01:49.53    \nframe=  118 fps=1.1 q=30.0 size=       1KiB time=00:00:01.95 bitrate=   2.3kbits/s speed=0.0177x elapsed=0:01:50.05    \nframe=  118 fps=1.1 q=30.0 size=       1KiB time=00:00:01.95 bitrate=   2.3kbits/s speed=0.0176x elapsed=0:01:50.56    \nframe=  118 fps=1.1 q=30.0 size=       1KiB time=00:00:01.95 bitrate=   2.3kbits/s speed=0.0176x elapsed=0:01:51.07    \nframe=  119 fps=1.1 q=28.0 size=       1KiB time=00:00:01.96 bitrate=   2.3kbits/s speed=0.0176x elapsed=0:01:51.60    \nframe=  119 fps=1.1 q=28.0 size=       1KiB time=00:00:01.96 bitrate=   2.3kbits/s speed=0.0175x elapsed=0:01:52.12    \nframe=  120 fps=1.1 q=30.0 size=       1KiB time=00:00:01.98 bitrate=   2.3kbits/s speed=0.0176x elapsed=0:01:52.63    \nframe=  122 fps=1.1 q=31.0 size=       1KiB time=00:00:02.01 bitrate=   2.2kbits/s speed=0.0178x elapsed=0:01:53.14    \nframe=  122 fps=1.1 q=31.0 size=       1KiB time=00:00:02.01 bitrate=   2.2kbits/s speed=0.0177x elapsed=0:01:53.66    \nframe=  123 fps=1.1 q=30.0 size=       1KiB time=00:00:02.03 bitrate=   2.2kbits/s speed=0.0178x elapsed=0:01:54.18    \nframe=  123 fps=1.1 q=30.0 size=       1KiB time=00:00:02.03 bitrate=   2.2kbits/s speed=0.0177x elapsed=0:01:54.69    \nframe=  124 fps=1.1 q=26.0 size=       1KiB time=00:00:02.05 bitrate=   2.2kbits/s speed=0.0178x elapsed=0:01:55.20    \nframe=  124 fps=1.1 q=26.0 size=       1KiB time=00:00:02.05 bitrate=   2.2kbits/s speed=0.0177x elapsed=0:01:55.72    \nframe=  125 fps=1.1 q=29.0 size=       1KiB time=00:00:02.06 bitrate=   2.2kbits/s speed=0.0178x elapsed=0:01:56.23    \nframe=  126 fps=1.1 q=30.0 size=       1KiB time=00:00:02.08 bitrate=   2.2kbits/s speed=0.0178x elapsed=0:01:56.75    \nframe=  127 fps=1.1 q=30.0 size=       1KiB time=00:00:02.10 bitrate=   2.1kbits/s speed=0.0179x elapsed=0:01:57.27    \nframe=  128 fps=1.1 q=30.0 size=       1KiB time=00:00:02.11 bitrate=   2.1kbits/s speed=0.018x elapsed=0:01:57.79    \nframe=  130 fps=1.1 q=31.0 size=       1KiB time=00:00:02.15 bitrate=   2.1kbits/s speed=0.0182x elapsed=0:01:58.29    \nframe=  130 fps=1.1 q=31.0 size=       1KiB time=00:00:02.15 bitrate=   2.1kbits/s speed=0.0181x elapsed=0:01:58.81    \nframe=  131 fps=1.1 q=31.0 size=       1KiB time=00:00:02.16 bitrate=   2.1kbits/s speed=0.0182x elapsed=0:01:59.33    \nframe=  131 fps=1.1 q=31.0 size=       1KiB time=00:00:02.16 bitrate=   2.1kbits/s speed=0.0181x elapsed=0:01:59.84    \nframe=  132 fps=1.1 q=31.0 size=       1KiB time=00:00:02.18 bitrate=   2.1kbits/s speed=0.0181x elapsed=0:02:00.37    \nframe=  133 fps=1.1 q=30.0 size=       1KiB time=00:00:02.20 bitrate=   2.0kbits/s speed=0.0182x elapsed=0:02:00.87    \nframe=  134 fps=1.1 q=30.0 size=       1KiB time=00:00:02.21 bitrate=   2.0kbits/s speed=0.0183x elapsed=0:02:01.39    \nframe=  134 fps=1.1 q=30.0 size=       1KiB time=00:00:02.21 bitrate=   2.0kbits/s speed=0.0182x elapsed=0:02:01.91    \nframe=  135 fps=1.1 q=30.0 size=       1KiB time=00:00:02.23 bitrate=   2.0kbits/s speed=0.0182x elapsed=0:02:02.43    \nframe=  135 fps=1.1 q=30.0 size=       1KiB time=00:00:02.23 bitrate=   2.0kbits/s speed=0.0182x elapsed=0:02:02.95    \nframe=  135 fps=1.1 q=30.0 size=       1KiB time=00:00:02.23 bitrate=   2.0kbits/s speed=0.0181x elapsed=0:02:03.46    \nframe=  136 fps=1.1 q=30.0 size=       1KiB time=00:00:02.25 bitrate=   2.0kbits/s speed=0.0181x elapsed=0:02:03.96    \nframe=  137 fps=1.1 q=21.0 size=       1KiB time=00:00:02.26 bitrate=   2.0kbits/s speed=0.0182x elapsed=0:02:04.49    \nframe=  139 fps=1.1 q=31.0 size=       1KiB time=00:00:02.30 bitrate=   1.9kbits/s speed=0.0184x elapsed=0:02:05.01    \nframe=  139 fps=1.1 q=31.0 size=       1KiB time=00:00:02.30 bitrate=   1.9kbits/s speed=0.0183x elapsed=0:02:05.52    \nframe=  140 fps=1.1 q=31.0 size=       1KiB time=00:00:02.31 bitrate=   1.9kbits/s speed=0.0184x elapsed=0:02:06.04    \nframe=  140 fps=1.1 q=31.0 size=       1KiB time=00:00:02.31 bitrate=   1.9kbits/s speed=0.0183x elapsed=0:02:06.55    \nframe=  141 fps=1.1 q=29.0 size=       1KiB time=00:00:02.33 bitrate=   1.9kbits/s speed=0.0184x elapsed=0:02:07.07    \nframe=  143 fps=1.1 q=30.0 size=       1KiB time=00:00:02.36 bitrate=   1.9kbits/s speed=0.0185x elapsed=0:02:07.58    \nframe=  143 fps=1.1 q=30.0 size=       1KiB time=00:00:02.36 bitrate=   1.9kbits/s speed=0.0185x elapsed=0:02:08.10    \nframe=  144 fps=1.1 q=30.0 size=       1KiB time=00:00:02.38 bitrate=   1.9kbits/s speed=0.0185x elapsed=0:02:08.61    \nframe=  145 fps=1.1 q=11.0 size=       1KiB time=00:00:02.40 bitrate=   1.9kbits/s speed=0.0186x elapsed=0:02:09.13    \nframe=  145 fps=1.1 q=11.0 size=       1KiB time=00:00:02.40 bitrate=   1.9kbits/s speed=0.0185x elapsed=0:02:09.64    \nframe=  146 fps=1.1 q=30.0 size=       1KiB time=00:00:02.41 bitrate=   1.9kbits/s speed=0.0186x elapsed=0:02:10.16    \nframe=  146 fps=1.1 q=30.0 size=       1KiB time=00:00:02.41 bitrate=   1.9kbits/s speed=0.0185x elapsed=0:02:10.68    \nframe=  146 fps=1.1 q=30.0 size=       1KiB time=00:00:02.41 bitrate=   1.9kbits/s speed=0.0184x elapsed=0:02:11.19    \nframe=  146 fps=1.1 q=30.0 size=       1KiB time=00:00:02.41 bitrate=   1.9kbits/s speed=0.0183x elapsed=0:02:11.70    \nframe=  148 fps=1.1 q=30.0 size=       1KiB time=00:00:02.45 bitrate=   1.8kbits/s speed=0.0185x elapsed=0:02:12.23    \nframe=  149 fps=1.1 q=30.0 size=       1KiB time=00:00:02.46 bitrate=   1.8kbits/s speed=0.0186x elapsed=0:02:12.78    \nframe=  150 fps=1.1 q=30.0 size=       1KiB time=00:00:02.48 bitrate=   1.8kbits/s speed=0.0186x elapsed=0:02:13.39    \nframe=  150 fps=1.1 q=30.0 size=       1KiB time=00:00:02.48 bitrate=   1.8kbits/s speed=0.0185x elapsed=0:02:13.93    \nframe=  150 fps=1.1 q=30.0 size=       1KiB time=00:00:02.48 bitrate=   1.8kbits/s speed=0.0185x elapsed=0:02:14.44    \nframe=  151 fps=1.1 q=30.0 size=       1KiB time=00:00:02.50 bitrate=   1.8kbits/s speed=0.0185x elapsed=0:02:15.00    \nframe=  151 fps=1.1 q=30.0 size=       1KiB time=00:00:02.50 bitrate=   1.8kbits/s speed=0.0184x elapsed=0:02:15.54    \nframe=  152 fps=1.1 q=21.0 size=       1KiB time=00:00:02.50 bitrate=   1.8kbits/s speed=0.0184x elapsed=0:02:16.08    \nframe=  154 fps=1.1 q=35.0 size=       1KiB time=00:00:02.55 bitrate=   1.8kbits/s speed=0.0187x elapsed=0:02:16.67    \nframe=  155 fps=1.1 q=30.0 size=       1KiB time=00:00:02.56 bitrate=   1.7kbits/s speed=0.0187x elapsed=0:02:17.30    \nframe=  155 fps=1.1 q=30.0 size=       1KiB time=00:00:02.56 bitrate=   1.7kbits/s speed=0.0186x elapsed=0:02:17.94    \nframe=  155 fps=1.1 q=30.0 size=       1KiB time=00:00:02.56 bitrate=   1.7kbits/s speed=0.0185x elapsed=0:02:18.46    \nframe=  156 fps=1.1 q=27.0 size=       1KiB time=00:00:02.58 bitrate=   1.7kbits/s speed=0.0186x elapsed=0:02:18.97    \nframe=  158 fps=1.1 q=30.0 size=       1KiB time=00:00:02.61 bitrate=   1.7kbits/s speed=0.0188x elapsed=0:02:19.48    \nframe=  159 fps=1.1 q=27.0 size=       1KiB time=00:00:02.63 bitrate=   1.7kbits/s speed=0.0188x elapsed=0:02:20.00    \nframe=  159 fps=1.1 q=27.0 size=       1KiB time=00:00:02.63 bitrate=   1.7kbits/s speed=0.0187x elapsed=0:02:20.52    \nframe=  160 fps=1.1 q=30.0 size=       1KiB time=00:00:02.65 bitrate=   1.7kbits/s speed=0.0188x elapsed=0:02:21.03    \nframe=  161 fps=1.1 q=12.0 size=       1KiB time=00:00:02.66 bitrate=   1.7kbits/s speed=0.0188x elapsed=0:02:21.55    \nframe=  163 fps=1.1 q=31.0 size=       1KiB time=00:00:02.70 bitrate=   1.7kbits/s speed=0.019x elapsed=0:02:22.06    \nframe=  163 fps=1.1 q=31.0 size=       1KiB time=00:00:02.70 bitrate=   1.7kbits/s speed=0.0189x elapsed=0:02:22.59    \nframe=  164 fps=1.1 q=32.0 size=       1KiB time=00:00:02.71 bitrate=   1.6kbits/s speed=0.019x elapsed=0:02:23.09    \nframe=  165 fps=1.1 q=30.0 size=       1KiB time=00:00:02.73 bitrate=   1.6kbits/s speed=0.019x elapsed=0:02:23.61    \nframe=  166 fps=1.2 q=29.0 size=       1KiB time=00:00:02.75 bitrate=   1.6kbits/s speed=0.0191x elapsed=0:02:24.12    \nframe=  167 fps=1.2 q=26.0 size=       1KiB time=00:00:02.76 bitrate=   1.6kbits/s speed=0.0191x elapsed=0:02:24.64    \nframe=  167 fps=1.2 q=26.0 size=       1KiB time=00:00:02.76 bitrate=   1.6kbits/s speed=0.0191x elapsed=0:02:25.16    \nframe=  168 fps=1.2 q=29.0 size=       1KiB time=00:00:02.78 bitrate=   1.6kbits/s speed=0.0191x elapsed=0:02:25.68    \nframe=  169 fps=1.2 q=21.0 size=       1KiB time=00:00:02.80 bitrate=   1.6kbits/s speed=0.0192x elapsed=0:02:26.19    \nframe=  171 fps=1.2 q=31.0 size=       1KiB time=00:00:02.83 bitrate=   1.6kbits/s speed=0.0193x elapsed=0:02:26.70    \nframe=  171 fps=1.2 q=31.0 size=       1KiB time=00:00:02.83 bitrate=   1.6kbits/s speed=0.0192x elapsed=0:02:27.23    \nframe=  172 fps=1.2 q=32.0 size=       1KiB time=00:00:02.85 bitrate=   1.6kbits/s speed=0.0193x elapsed=0:02:27.74    \nframe=  173 fps=1.2 q=29.0 size=       1KiB time=00:00:02.86 bitrate=   1.6kbits/s speed=0.0193x elapsed=0:02:28.25    \nframe=  173 fps=1.2 q=29.0 size=       1KiB time=00:00:02.86 bitrate=   1.6kbits/s speed=0.0193x elapsed=0:02:28.77    \nframe=  175 fps=1.2 q=31.0 size=       1KiB time=00:00:02.90 bitrate=   1.5kbits/s speed=0.0194x elapsed=0:02:29.29    \nframe=  175 fps=1.2 q=31.0 size=       1KiB time=00:00:02.90 bitrate=   1.5kbits/s speed=0.0194x elapsed=0:02:29.80    \nframe=  176 fps=1.2 q=32.0 size=       1KiB time=00:00:02.91 bitrate=   1.5kbits/s speed=0.0194x elapsed=0:02:30.32    \nframe=  177 fps=1.2 q=11.0 size=       1KiB time=00:00:02.93 bitrate=   1.5kbits/s speed=0.0194x elapsed=0:02:30.84    \nframe=  178 fps=1.2 q=32.0 size=       1KiB time=00:00:02.95 bitrate=   1.5kbits/s speed=0.0195x elapsed=0:02:31.34    \nframe=  179 fps=1.2 q=31.0 size=       1KiB time=00:00:02.96 bitrate=   1.5kbits/s speed=0.0195x elapsed=0:02:31.87    \nframe=  180 fps=1.2 q=32.0 size=       1KiB time=00:00:02.98 bitrate=   1.5kbits/s speed=0.0196x elapsed=0:02:32.38    \nframe=  181 fps=1.2 q=30.0 size=       1KiB time=00:00:03.00 bitrate=   1.5kbits/s speed=0.0196x elapsed=0:02:32.89    \nframe=  182 fps=1.2 q=32.0 size=       1KiB time=00:00:03.01 bitrate=   1.5kbits/s speed=0.0197x elapsed=0:02:33.40    \nframe=  182 fps=1.2 q=32.0 size=       1KiB time=00:00:03.01 bitrate=   1.5kbits/s speed=0.0196x elapsed=0:02:33.93    \nframe=  182 fps=1.2 q=32.0 size=       1KiB time=00:00:03.01 bitrate=   1.5kbits/s speed=0.0195x elapsed=0:02:34.44    \nframe=  183 fps=1.2 q=31.0 size=       1KiB time=00:00:03.03 bitrate=   1.5kbits/s speed=0.0196x elapsed=0:02:34.95    \nframe=  183 fps=1.2 q=31.0 size=       1KiB time=00:00:03.03 bitrate=   1.5kbits/s speed=0.0195x elapsed=0:02:35.47    \nframe=  184 fps=1.2 q=32.0 size=       1KiB time=00:00:03.05 bitrate=   1.5kbits/s speed=0.0196x elapsed=0:02:35.99    \nframe=  186 fps=1.2 q=32.0 size=       1KiB time=00:00:03.08 bitrate=   1.5kbits/s speed=0.0197x elapsed=0:02:36.50    \nframe=  186 fps=1.2 q=32.0 size=       1KiB time=00:00:03.08 bitrate=   1.5kbits/s speed=0.0196x elapsed=0:02:37.02    \nframe=  187 fps=1.2 q=31.0 size=       1KiB time=00:00:03.10 bitrate=   1.4kbits/s speed=0.0197x elapsed=0:02:37.53    \nframe=  188 fps=1.2 q=27.0 size=       1KiB time=00:00:03.11 bitrate=   1.4kbits/s speed=0.0197x elapsed=0:02:38.05    \nframe=  188 fps=1.2 q=27.0 size=       1KiB time=00:00:03.11 bitrate=   1.4kbits/s speed=0.0197x elapsed=0:02:38.56    \nframe=  189 fps=1.2 q=29.0 size=       1KiB time=00:00:03.13 bitrate=   1.4kbits/s speed=0.0197x elapsed=0:02:39.08    \nframe=  191 fps=1.2 q=27.0 size=       1KiB time=00:00:03.16 bitrate=   1.4kbits/s speed=0.0198x elapsed=0:02:39.60    \nframe=  192 fps=1.2 q=30.0 size=       1KiB time=00:00:03.18 bitrate=   1.4kbits/s speed=0.0199x elapsed=0:02:40.12    \nframe=  193 fps=1.2 q=12.0 size=       1KiB time=00:00:03.20 bitrate=   1.4kbits/s speed=0.0199x elapsed=0:02:40.63    \nframe=  194 fps=1.2 q=32.0 size=       1KiB time=00:00:03.21 bitrate=   1.4kbits/s speed=0.02x elapsed=0:02:41.14    \nframe=  195 fps=1.2 q=32.0 size=       1KiB time=00:00:03.23 bitrate=   1.4kbits/s speed=0.02x elapsed=0:02:41.65    \nframe=  195 fps=1.2 q=32.0 size=       1KiB time=00:00:03.23 bitrate=   1.4kbits/s speed=0.0199x elapsed=0:02:42.17    \nframe=  195 fps=1.2 q=32.0 size=       1KiB time=00:00:03.23 bitrate=   1.4kbits/s speed=0.0199x elapsed=0:02:42.70    \nframe=  196 fps=1.2 q=32.0 size=       1KiB time=00:00:03.25 bitrate=   1.4kbits/s speed=0.0199x elapsed=0:02:43.21    \nframe=  197 fps=1.2 q=31.0 size=       1KiB time=00:00:03.26 bitrate=   1.4kbits/s speed=0.02x elapsed=0:02:43.72    \nframe=  198 fps=1.2 q=29.0 size=       1KiB time=00:00:03.28 bitrate=   1.4kbits/s speed=0.02x elapsed=0:02:44.24    \nframe=  198 fps=1.2 q=29.0 size=       1KiB time=00:00:03.28 bitrate=   1.4kbits/s speed=0.0199x elapsed=0:02:44.76    \nframe=  198 fps=1.2 q=29.0 size=       1KiB time=00:00:03.28 bitrate=   1.4kbits/s speed=0.0199x elapsed=0:02:45.27    \nframe=  199 fps=1.2 q=25.0 size=       1KiB time=00:00:03.30 bitrate=   1.4kbits/s speed=0.0199x elapsed=0:02:45.79    \nframe=  199 fps=1.2 q=25.0 size=       1KiB time=00:00:03.30 bitrate=   1.4kbits/s speed=0.0198x elapsed=0:02:46.30    \nframe=  199 fps=1.2 q=25.0 size=       1KiB time=00:00:03.30 bitrate=   1.4kbits/s speed=0.0198x elapsed=0:02:46.81    \nframe=  201 fps=1.2 q=22.0 size=       1KiB time=00:00:03.33 bitrate=   1.3kbits/s speed=0.0199x elapsed=0:02:47.33    \nframe=  202 fps=1.2 q=32.0 size=       1KiB time=00:00:03.35 bitrate=   1.3kbits/s speed=0.02x elapsed=0:02:47.84    \nframe=  203 fps=1.2 q=31.0 size=       1KiB time=00:00:03.36 bitrate=   1.3kbits/s speed=0.02x elapsed=0:02:48.52    \nframe=  203 fps=1.2 q=31.0 size=       1KiB time=00:00:03.36 bitrate=   1.3kbits/s speed=0.0199x elapsed=0:02:49.24    \nframe=  204 fps=1.2 q=28.0 size=       1KiB time=00:00:03.38 bitrate=   1.3kbits/s speed=0.0199x elapsed=0:02:50.00    \nframe=  204 fps=1.2 q=28.0 size=       1KiB time=00:00:03.38 bitrate=   1.3kbits/s speed=0.0198x elapsed=0:02:50.51    \nframe=  205 fps=1.2 q=29.0 size=       1KiB time=00:00:03.40 bitrate=   1.3kbits/s speed=0.0199x elapsed=0:02:51.04    \nframe=  208 fps=1.2 q=31.0 size=       1KiB time=00:00:03.45 bitrate=   1.3kbits/s speed=0.0201x elapsed=0:02:51.55    \nframe=  208 fps=1.2 q=31.0 size=       1KiB time=00:00:03.45 bitrate=   1.3kbits/s speed=0.0201x elapsed=0:02:52.06    \nframe=  209 fps=1.2 q=12.0 size=       1KiB time=00:00:03.46 bitrate=   1.3kbits/s speed=0.0201x elapsed=0:02:52.58    \nframe=  210 fps=1.2 q=32.0 size=       1KiB time=00:00:03.48 bitrate=   1.3kbits/s speed=0.0201x elapsed=0:02:53.09    \nframe=  210 fps=1.2 q=32.0 size=       1KiB time=00:00:03.48 bitrate=   1.3kbits/s speed=0.0201x elapsed=0:02:53.61    \nframe=  211 fps=1.2 q=31.0 size=       1KiB time=00:00:03.50 bitrate=   1.3kbits/s speed=0.0201x elapsed=0:02:54.13    \nframe=  211 fps=1.2 q=31.0 size=       1KiB time=00:00:03.50 bitrate=   1.3kbits/s speed=0.02x elapsed=0:02:54.64    \nframe=  213 fps=1.2 q=29.0 size=       1KiB time=00:00:03.53 bitrate=   1.3kbits/s speed=0.0202x elapsed=0:02:55.16    \nframe=  214 fps=1.2 q=32.0 size=       1KiB time=00:00:03.55 bitrate=   1.3kbits/s speed=0.0202x elapsed=0:02:55.68    \nframe=  214 fps=1.2 q=32.0 size=       1KiB time=00:00:03.55 bitrate=   1.3kbits/s speed=0.0201x elapsed=0:02:56.20    \nframe=  214 fps=1.2 q=32.0 size=       1KiB time=00:00:03.55 bitrate=   1.3kbits/s speed=0.0201x elapsed=0:02:56.73    \nframe=  215 fps=1.2 q=31.0 size=       1KiB time=00:00:03.56 bitrate=   1.3kbits/s speed=0.0201x elapsed=0:02:57.24    \nframe=  215 fps=1.2 q=31.0 size=       1KiB time=00:00:03.56 bitrate=   1.3kbits/s speed=0.0201x elapsed=0:02:57.76    \nframe=  215 fps=1.2 q=31.0 size=       1KiB time=00:00:03.56 bitrate=   1.3kbits/s speed=0.02x elapsed=0:02:58.26    \nframe=  217 fps=1.2 q=22.0 size=       1KiB time=00:00:03.60 bitrate=   1.2kbits/s speed=0.0201x elapsed=0:02:58.78    \nframe=  218 fps=1.2 q=32.0 size=       1KiB time=00:00:03.61 bitrate=   1.2kbits/s speed=0.0202x elapsed=0:02:59.30    \nframe=  218 fps=1.2 q=32.0 size=       1KiB time=00:00:03.61 bitrate=   1.2kbits/s speed=0.0201x elapsed=0:02:59.82    \nframe=  219 fps=1.2 q=31.0 size=       1KiB time=00:00:03.63 bitrate=   1.2kbits/s speed=0.0201x elapsed=0:03:00.33    \nframe=  220 fps=1.2 q=28.0 size=       1KiB time=00:00:03.65 bitrate=   1.2kbits/s speed=0.0202x elapsed=0:03:01.07    \nframe=  220 fps=1.2 q=28.0 size=       1KiB time=00:00:03.65 bitrate=   1.2kbits/s speed=0.0201x elapsed=0:03:01.58    \nframe=  221 fps=1.2 q=29.0 size=       1KiB time=00:00:03.66 bitrate=   1.2kbits/s speed=0.0201x elapsed=0:03:02.09    \nframe=  223 fps=1.2 q=28.0 size=       1KiB time=00:00:03.70 bitrate=   1.2kbits/s speed=0.0203x elapsed=0:03:02.61    \nframe=  224 fps=1.2 q=31.0 size=       1KiB time=00:00:03.71 bitrate=   1.2kbits/s speed=0.0203x elapsed=0:03:03.13    \nframe=  225 fps=1.2 q=12.0 size=       1KiB time=00:00:03.73 bitrate=   1.2kbits/s speed=0.0203x elapsed=0:03:03.65    \nframe=  226 fps=1.2 q=32.0 size=       1KiB time=00:00:03.75 bitrate=   1.2kbits/s speed=0.0204x elapsed=0:03:04.16    \nframe=  227 fps=1.2 q=31.0 size=       1KiB time=00:00:03.76 bitrate=   1.2kbits/s speed=0.0204x elapsed=0:03:04.68    \nframe=  227 fps=1.2 q=31.0 size=       1KiB time=00:00:03.76 bitrate=   1.2kbits/s speed=0.0203x elapsed=0:03:05.19    \nframe=  227 fps=1.2 q=31.0 size=       1KiB time=00:00:03.76 bitrate=   1.2kbits/s speed=0.0203x elapsed=0:03:05.71    \nframe=  229 fps=1.2 q=28.0 size=       1KiB time=00:00:03.78 bitrate=   1.2kbits/s speed=0.0203x elapsed=0:03:06.26    \nframe=  229 fps=1.2 q=28.0 size=       1KiB time=00:00:03.80 bitrate=   1.2kbits/s speed=0.0203x elapsed=0:03:06.86    \nframe=  230 fps=1.2 q=29.0 size=       1KiB time=00:00:03.81 bitrate=   1.2kbits/s speed=0.0204x elapsed=0:03:07.50    \nframe=  230 fps=1.2 q=29.0 size=       1KiB time=00:00:03.81 bitrate=   1.2kbits/s speed=0.0203x elapsed=0:03:08.14    \nframe=  231 fps=1.2 q=25.0 size=       1KiB time=00:00:03.83 bitrate=   1.2kbits/s speed=0.0203x elapsed=0:03:08.71    \nframe=  231 fps=1.2 q=25.0 size=       1KiB time=00:00:03.83 bitrate=   1.2kbits/s speed=0.0203x elapsed=0:03:09.25    \nframe=  232 fps=1.2 q=29.0 size=       1KiB time=00:00:03.83 bitrate=   1.2kbits/s speed=0.0202x elapsed=0:03:09.83    \nframe=  232 fps=1.2 q=29.0 size=       1KiB time=00:00:03.85 bitrate=   1.2kbits/s speed=0.0202x elapsed=0:03:10.37    \nframe=  233 fps=1.2 q=23.0 size=       1KiB time=00:00:03.86 bitrate=   1.2kbits/s speed=0.0203x elapsed=0:03:10.89    \nframe=  235 fps=1.2 q=33.0 size=       1KiB time=00:00:03.90 bitrate=   1.1kbits/s speed=0.0204x elapsed=0:03:11.40    \nframe=  235 fps=1.2 q=33.0 size=       1KiB time=00:00:03.90 bitrate=   1.1kbits/s speed=0.0203x elapsed=0:03:11.92    \nframe=  236 fps=1.2 q=33.0 size=       1KiB time=00:00:03.91 bitrate=   1.1kbits/s speed=0.0204x elapsed=0:03:12.45    \nframe=  238 fps=1.2 q=31.0 size=       1KiB time=00:00:03.95 bitrate=   1.1kbits/s speed=0.0205x elapsed=0:03:12.97    \nframe=  239 fps=1.2 q=29.0 size=       1KiB time=00:00:03.96 bitrate=   1.1kbits/s speed=0.0205x elapsed=0:03:13.48    \nframe=  239 fps=1.2 q=29.0 size=       1KiB time=00:00:03.96 bitrate=   1.1kbits/s speed=0.0204x elapsed=0:03:14.01    \nframe=  240 fps=1.2 q=31.0 size=       1KiB time=00:00:03.98 bitrate=   1.1kbits/s speed=0.0205x elapsed=0:03:14.54    \nframe=  242 fps=1.2 q=32.0 size=       1KiB time=00:00:04.01 bitrate=   1.1kbits/s speed=0.0206x elapsed=0:03:15.08    \nframe=  243 fps=1.2 q=31.0 size=       1KiB time=00:00:04.03 bitrate=   1.1kbits/s speed=0.0206x elapsed=0:03:15.60    \nframe=  243 fps=1.2 q=31.0 size=       1KiB time=00:00:04.03 bitrate=   1.1kbits/s speed=0.0206x elapsed=0:03:16.20    \nframe=  244 fps=1.2 q=32.0 size=       1KiB time=00:00:04.05 bitrate=   1.1kbits/s speed=0.0206x elapsed=0:03:16.74    \nframe=  245 fps=1.2 q=28.0 size=       1KiB time=00:00:04.06 bitrate=   1.1kbits/s speed=0.0206x elapsed=0:03:17.31    \nframe=  246 fps=1.2 q=30.0 size=       1KiB time=00:00:04.08 bitrate=   1.1kbits/s speed=0.0206x elapsed=0:03:17.86    \nframe=  246 fps=1.2 q=30.0 size=       1KiB time=00:00:04.08 bitrate=   1.1kbits/s speed=0.0206x elapsed=0:03:18.41    \nframe=  247 fps=1.2 q=26.0 size=       1KiB time=00:00:04.10 bitrate=   1.1kbits/s speed=0.0206x elapsed=0:03:18.93    \nframe=  247 fps=1.2 q=26.0 size=       1KiB time=00:00:04.10 bitrate=   1.1kbits/s speed=0.0206x elapsed=0:03:19.49    \nframe=  248 fps=1.2 q=30.0 size=       1KiB time=00:00:04.11 bitrate=   1.1kbits/s speed=0.0206x elapsed=0:03:20.04    \nframe=  249 fps=1.2 q=23.0 size=       1KiB time=00:00:04.13 bitrate=   1.1kbits/s speed=0.0206x elapsed=0:03:20.56    \nframe=  250 fps=1.2 q=32.0 size=       1KiB time=00:00:04.15 bitrate=   1.1kbits/s speed=0.0206x elapsed=0:03:21.19    \nframe=  251 fps=1.2 q=31.0 size=       1KiB time=00:00:04.16 bitrate=   1.1kbits/s speed=0.0206x elapsed=0:03:21.83    \nframe=  251 fps=1.2 q=31.0 size=       1KiB time=00:00:04.16 bitrate=   1.1kbits/s speed=0.0206x elapsed=0:03:22.44    \nframe=  252 fps=1.2 q=28.0 size=       1KiB time=00:00:04.18 bitrate=   1.1kbits/s speed=0.0206x elapsed=0:03:23.01    \nframe=  253 fps=1.2 q=28.0 size=       1KiB time=00:00:04.20 bitrate=   1.1kbits/s speed=0.0206x elapsed=0:03:23.65    \nframe=  255 fps=1.2 q=29.0 size=       1KiB time=00:00:04.23 bitrate=   1.1kbits/s speed=0.0207x elapsed=0:03:24.33    \nframe=  256 fps=1.2 q=31.0 size=       1KiB time=00:00:04.25 bitrate=   1.1kbits/s speed=0.0207x elapsed=0:03:24.86    \nframe=  258 fps=1.3 q=32.0 size=       1KiB time=00:00:04.28 bitrate=   1.0kbits/s speed=0.0209x elapsed=0:03:25.40    \nframe=  259 fps=1.3 q=31.0 size=       1KiB time=00:00:04.30 bitrate=   1.0kbits/s speed=0.0209x elapsed=0:03:25.93    \nframe=  259 fps=1.3 q=31.0 size=       1KiB time=00:00:04.30 bitrate=   1.0kbits/s speed=0.0208x elapsed=0:03:26.46    \nframe=  260 fps=1.3 q=32.0 size=       1KiB time=00:00:04.31 bitrate=   1.0kbits/s speed=0.0209x elapsed=0:03:27.01    \nframe=  261 fps=1.3 q=28.0 size=       1KiB time=00:00:04.33 bitrate=   1.0kbits/s speed=0.0209x elapsed=0:03:27.54    \nframe=  262 fps=1.3 q=30.0 size=       1KiB time=00:00:04.35 bitrate=   1.0kbits/s speed=0.0209x elapsed=0:03:28.08    \nframe=  263 fps=1.3 q=27.0 size=       1KiB time=00:00:04.36 bitrate=   1.0kbits/s speed=0.0209x elapsed=0:03:28.67    \nframe=  263 fps=1.3 q=27.0 size=       1KiB time=00:00:04.36 bitrate=   1.0kbits/s speed=0.0209x elapsed=0:03:29.20    \nframe=  264 fps=1.3 q=30.0 size=       1KiB time=00:00:04.38 bitrate=   1.0kbits/s speed=0.0209x elapsed=0:03:29.77    \nframe=  266 fps=1.3 q=32.0 size=       1KiB time=00:00:04.41 bitrate=   1.0kbits/s speed=0.021x elapsed=0:03:30.33    \nframe=  267 fps=1.3 q=31.0 size=       1KiB time=00:00:04.43 bitrate=   1.0kbits/s speed=0.021x elapsed=0:03:30.94    \nframe=  267 fps=1.3 q=31.0 size=       1KiB time=00:00:04.43 bitrate=   1.0kbits/s speed=0.021x elapsed=0:03:31.48    \nframe=  268 fps=1.3 q=28.0 size=       1KiB time=00:00:04.45 bitrate=   1.0kbits/s speed=0.021x elapsed=0:03:32.12    \nframe=  269 fps=1.3 q=29.0 size=       1KiB time=00:00:04.46 bitrate=   1.0kbits/s speed=0.021x elapsed=0:03:32.68    \nframe=  270 fps=1.3 q=31.0 size=       1KiB time=00:00:04.48 bitrate=   1.0kbits/s speed=0.021x elapsed=0:03:33.28    \nframe=  271 fps=1.3 q=29.0 size=       1KiB time=00:00:04.50 bitrate=   1.0kbits/s speed=0.021x elapsed=0:03:33.79    \nframe=  272 fps=1.3 q=31.0 size=       1KiB time=00:00:04.51 bitrate=   1.0kbits/s speed=0.0211x elapsed=0:03:34.32    \nframe=  273 fps=1.3 q=13.0 size=       1KiB time=00:00:04.53 bitrate=   1.0kbits/s speed=0.0211x elapsed=0:03:34.85    \nframe=  275 fps=1.3 q=31.0 size=       1KiB time=00:00:04.56 bitrate=   1.0kbits/s speed=0.0212x elapsed=0:03:35.41    \nframe=  276 fps=1.3 q=32.0 size=       1KiB time=00:00:04.58 bitrate=   1.0kbits/s speed=0.0212x elapsed=0:03:35.95    \nframe=  277 fps=1.3 q=29.0 size=       1KiB time=00:00:04.60 bitrate=   1.0kbits/s speed=0.0213x elapsed=0:03:36.46    \nframe=  278 fps=1.3 q=32.0 size=       1KiB time=00:00:04.61 bitrate=   1.0kbits/s speed=0.0213x elapsed=0:03:37.01    \nframe=  278 fps=1.3 q=32.0 size=       1KiB time=00:00:04.61 bitrate=   1.0kbits/s speed=0.0212x elapsed=0:03:37.52    \nframe=  279 fps=1.3 q=31.0 size=       1KiB time=00:00:04.63 bitrate=   1.0kbits/s speed=0.0212x elapsed=0:03:38.04    \nframe=  279 fps=1.3 q=31.0 size=       1KiB time=00:00:04.63 bitrate=   1.0kbits/s speed=0.0212x elapsed=0:03:38.58    \nframe=  281 fps=1.3 q=23.0 size=       1KiB time=00:00:04.66 bitrate=   1.0kbits/s speed=0.0213x elapsed=0:03:39.11    \nframe=  282 fps=1.3 q=33.0 size=       1KiB time=00:00:04.68 bitrate=   1.0kbits/s speed=0.0213x elapsed=0:03:39.66    \nframe=  283 fps=1.3 q=32.0 size=       1KiB time=00:00:04.70 bitrate=   1.0kbits/s speed=0.0213x elapsed=0:03:40.21    \nframe=  284 fps=1.3 q=28.0 size=       1KiB time=00:00:04.71 bitrate=   0.9kbits/s speed=0.0214x elapsed=0:03:40.73    \nframe=  284 fps=1.3 q=28.0 size=       1KiB time=00:00:04.71 bitrate=   0.9kbits/s speed=0.0213x elapsed=0:03:41.28    \nframe=  286 fps=1.3 q=32.0 size=       1KiB time=00:00:04.73 bitrate=   0.9kbits/s speed=0.0213x elapsed=0:03:41.90    \nframe=  287 fps=1.3 q=29.0 size=       1KiB time=00:00:04.76 bitrate=   0.9kbits/s speed=0.0214x elapsed=0:03:42.52    \nframe=  288 fps=1.3 q=32.0 size=       1KiB time=00:00:04.78 bitrate=   0.9kbits/s speed=0.0214x elapsed=0:03:43.04    \nframe=  290 fps=1.3 q=34.0 size=       1KiB time=00:00:04.81 bitrate=   0.9kbits/s speed=0.0215x elapsed=0:03:43.55    \nframe=  291 fps=1.3 q=32.0 size=       1KiB time=00:00:04.83 bitrate=   0.9kbits/s speed=0.0216x elapsed=0:03:44.07    \nframe=  292 fps=1.3 q=29.0 size=       1KiB time=00:00:04.85 bitrate=   0.9kbits/s speed=0.0216x elapsed=0:03:44.60    \nframe=  293 fps=1.3 q=29.0 size=       1KiB time=00:00:04.86 bitrate=   0.9kbits/s speed=0.0216x elapsed=0:03:45.11    \nframe=  294 fps=1.3 q=32.0 size=       1KiB time=00:00:04.88 bitrate=   0.9kbits/s speed=0.0216x elapsed=0:03:45.63    \nframe=  294 fps=1.3 q=32.0 size=       1KiB time=00:00:04.88 bitrate=   0.9kbits/s speed=0.0216x elapsed=0:03:46.14    \nframe=  295 fps=1.3 q=29.0 size=       1KiB time=00:00:04.90 bitrate=   0.9kbits/s speed=0.0216x elapsed=0:03:46.65    \nframe=  296 fps=1.3 q=32.0 size=       1KiB time=00:00:04.91 bitrate=   0.9kbits/s speed=0.0216x elapsed=0:03:47.17    \nframe=  298 fps=1.3 q=34.0 size=       1KiB time=00:00:04.95 bitrate=   0.9kbits/s speed=0.0217x elapsed=0:03:47.69    \nframe=  298 fps=1.3 q=34.0 size=       1KiB time=00:00:04.95 bitrate=   0.9kbits/s speed=0.0217x elapsed=0:03:48.21    \nframe=  299 fps=1.3 q=32.0 size=       1KiB time=00:00:04.96 bitrate=   0.9kbits/s speed=0.0217x elapsed=0:03:48.72    \nframe=  300 fps=1.3 q=34.0 size=       1KiB time=00:00:04.98 bitrate=   0.9kbits/s speed=0.0217x elapsed=0:03:49.23    \nframe=  301 fps=1.3 q=29.0 size=       1KiB time=00:00:05.00 bitrate=   0.9kbits/s speed=0.0218x elapsed=0:03:49.76    \nframe=  303 fps=1.3 q=32.0 size=    4352KiB time=00:00:05.03 bitrate=7083.1kbits/s speed=0.0219x elapsed=0:03:50.27    \nframe=  303 fps=1.3 q=32.0 size=    4352KiB time=00:00:05.03 bitrate=7083.1kbits/s speed=0.0218x elapsed=0:03:50.78    \nframe=  304 fps=1.3 q=34.0 size=    4352KiB time=00:00:05.05 bitrate=7059.7kbits/s speed=0.0218x elapsed=0:03:51.30    \nframe=  305 fps=1.3 q=13.0 size=    4352KiB time=00:00:05.06 bitrate=7036.5kbits/s speed=0.0219x elapsed=0:03:51.81    \nframe=  306 fps=1.3 q=35.0 size=    4352KiB time=00:00:05.08 bitrate=7013.4kbits/s speed=0.0219x elapsed=0:03:52.33    \nframe=  307 fps=1.3 q=34.0 size=    4352KiB time=00:00:05.10 bitrate=6990.5kbits/s speed=0.0219x elapsed=0:03:52.84    \nframe=  309 fps=1.3 q=32.0 size=    4352KiB time=00:00:05.13 bitrate=6945.1kbits/s speed=0.022x elapsed=0:03:53.36    \nframe=  310 fps=1.3 q=35.0 size=    4352KiB time=00:00:05.15 bitrate=6922.6kbits/s speed=0.022x elapsed=0:03:53.88    \nframe=  311 fps=1.3 q=34.0 size=    4352KiB time=00:00:05.16 bitrate=6900.3kbits/s speed=0.022x elapsed=0:03:54.40    \nframe=  313 fps=1.3 q=29.0 size=    4352KiB time=00:00:05.20 bitrate=6856.1kbits/s speed=0.0221x elapsed=0:03:54.92    \nframe=  313 fps=1.3 q=29.0 size=    4352KiB time=00:00:05.20 bitrate=6856.1kbits/s speed=0.0221x elapsed=0:03:55.43    \nframe=  314 fps=1.3 q=35.0 size=    4352KiB time=00:00:05.21 bitrate=6834.2kbits/s speed=0.0221x elapsed=0:03:55.94    \nframe=  315 fps=1.3 q=34.0 size=    4352KiB time=00:00:05.23 bitrate=6812.4kbits/s speed=0.0221x elapsed=0:03:56.45    \nframe=  316 fps=1.3 q=35.0 size=    4352KiB time=00:00:05.25 bitrate=6790.8kbits/s speed=0.0222x elapsed=0:03:56.97    \nframe=  316 fps=1.3 q=35.0 size=    4352KiB time=00:00:05.25 bitrate=6790.8kbits/s speed=0.0221x elapsed=0:03:57.49    \nframe=  316 fps=1.3 q=35.0 size=    4352KiB time=00:00:05.25 bitrate=6790.8kbits/s speed=0.0221x elapsed=0:03:58.00    \nframe=  316 fps=1.3 q=35.0 size=    4352KiB time=00:00:05.25 bitrate=6790.8kbits/s speed=0.022x elapsed=0:03:58.53    \nframe=  316 fps=1.3 q=35.0 size=    4352KiB time=00:00:05.25 bitrate=6790.8kbits/s speed=0.022x elapsed=0:03:59.04    \nframe=  317 fps=1.3 q=32.0 size=    4352KiB time=00:00:05.26 bitrate=6769.3kbits/s speed=0.022x elapsed=0:03:59.56    \nframe=  317 fps=1.3 q=32.0 size=    4352KiB time=00:00:05.26 bitrate=6769.3kbits/s speed=0.0219x elapsed=0:04:00.07    \nframe=  317 fps=1.3 q=32.0 size=    4352KiB time=00:00:05.26 bitrate=6769.3kbits/s speed=0.0219x elapsed=0:04:00.58    \nframe=  317 fps=1.3 q=32.0 size=    4352KiB time=00:00:05.26 bitrate=6769.3kbits/s speed=0.0218x elapsed=0:04:01.10    \nframe=  317 fps=1.3 q=32.0 size=    4352KiB time=00:00:05.26 bitrate=6769.3kbits/s speed=0.0218x elapsed=0:04:01.61    \nframe=  317 fps=1.3 q=32.0 size=    4352KiB time=00:00:05.26 bitrate=6769.3kbits/s speed=0.0218x elapsed=0:04:02.13    \nframe=  317 fps=1.3 q=32.0 size=    4352KiB time=00:00:05.26 bitrate=6769.3kbits/s speed=0.0217x elapsed=0:04:02.64    \nframe=  318 fps=1.3 q=35.0 size=    4352KiB time=00:00:05.28 bitrate=6747.9kbits/s speed=0.0217x elapsed=0:04:03.17    \nframe=  318 fps=1.3 q=35.0 size=    4352KiB time=00:00:05.28 bitrate=6747.9kbits/s speed=0.0217x elapsed=0:04:03.68    \nframe=  319 fps=1.3 q=34.0 size=    4352KiB time=00:00:05.30 bitrate=6726.7kbits/s speed=0.0217x elapsed=0:04:04.20    \nframe=  320 fps=1.3 q=35.0 size=    4352KiB time=00:00:05.31 bitrate=6705.6kbits/s speed=0.0217x elapsed=0:04:04.71    \nframe=  321 fps=1.3 q=22.0 size=    4352KiB time=00:00:05.33 bitrate=6684.7kbits/s speed=0.0217x elapsed=0:04:05.22    \nframe=  322 fps=1.3 q=8.0 size=    4352KiB time=00:00:05.35 bitrate=6663.8kbits/s speed=0.0218x elapsed=0:04:05.74    \nframe=  323 fps=1.3 q=35.0 size=    4608KiB time=00:00:05.36 bitrate=7033.9kbits/s speed=0.0218x elapsed=0:04:06.25    \nframe=  323 fps=1.3 q=35.0 size=    4608KiB time=00:00:05.36 bitrate=7033.9kbits/s speed=0.0217x elapsed=0:04:06.77    \nframe=  324 fps=1.3 q=34.0 size=    4608KiB time=00:00:05.38 bitrate=7012.1kbits/s speed=0.0218x elapsed=0:04:07.29    \nframe=  326 fps=1.3 q=33.0 size=    4608KiB time=00:00:05.41 bitrate=6969.0kbits/s speed=0.0219x elapsed=0:04:07.80    \nframe=  326 fps=1.3 q=33.0 size=    4608KiB time=00:00:05.41 bitrate=6969.0kbits/s speed=0.0218x elapsed=0:04:08.32    \nframe=  326 fps=1.3 q=33.0 size=    4608KiB time=00:00:05.41 bitrate=6969.0kbits/s speed=0.0218x elapsed=0:04:08.83    \nframe=  327 fps=1.3 q=35.0 size=    4608KiB time=00:00:05.43 bitrate=6947.6kbits/s speed=0.0218x elapsed=0:04:09.35    \nframe=  328 fps=1.3 q=34.0 size=    4608KiB time=00:00:05.45 bitrate=6926.4kbits/s speed=0.0218x elapsed=0:04:09.86    \nframe=  330 fps=1.3 q=26.0 size=    4608KiB time=00:00:05.48 bitrate=6884.3kbits/s speed=0.0219x elapsed=0:04:10.37    \nframe=  331 fps=1.3 q=35.0 size=    4608KiB time=00:00:05.50 bitrate=6863.4kbits/s speed=0.0219x elapsed=0:04:10.89    \nframe=  331 fps=1.3 q=35.0 size=    4608KiB time=00:00:05.50 bitrate=6863.4kbits/s speed=0.0219x elapsed=0:04:11.40    \nframe=  332 fps=1.3 q=34.0 size=    4608KiB time=00:00:05.51 bitrate=6842.7kbits/s speed=0.0219x elapsed=0:04:11.92    \nframe=  333 fps=1.3 q=35.0 size=    4608KiB time=00:00:05.53 bitrate=6822.1kbits/s speed=0.0219x elapsed=0:04:12.45    \nframe=  334 fps=1.3 q=32.0 size=    4608KiB time=00:00:05.55 bitrate=6801.6kbits/s speed=0.0219x elapsed=0:04:12.95    \nframe=  336 fps=1.3 q=29.0 size=    4608KiB time=00:00:05.58 bitrate=6761.0kbits/s speed=0.022x elapsed=0:04:13.47    \nframe=  336 fps=1.3 q=29.0 size=    4608KiB time=00:00:05.58 bitrate=6761.0kbits/s speed=0.022x elapsed=0:04:14.00    \nframe=  338 fps=1.3 q=16.0 size=    4608KiB time=00:00:05.61 bitrate=6720.8kbits/s speed=0.0221x elapsed=0:04:14.50    \nframe=  339 fps=1.3 q=35.0 size=    4608KiB time=00:00:05.63 bitrate=6701.0kbits/s speed=0.0221x elapsed=0:04:15.02    \nframe=  339 fps=1.3 q=35.0 size=    4608KiB time=00:00:05.63 bitrate=6701.0kbits/s speed=0.022x elapsed=0:04:15.54    \nframe=  341 fps=1.3 q=35.0 size=    4608KiB time=00:00:05.66 bitrate=6661.5kbits/s speed=0.0221x elapsed=0:04:16.06    \nframe=  343 fps=1.3 q=35.0 size=    4608KiB time=00:00:05.70 bitrate=6622.6kbits/s speed=0.0222x elapsed=0:04:16.59    \nframe=  344 fps=1.3 q=34.0 size=    4608KiB time=00:00:05.71 bitrate=6603.3kbits/s speed=0.0222x elapsed=0:04:17.10    \nframe=  344 fps=1.3 q=34.0 size=    4608KiB time=00:00:05.71 bitrate=6603.3kbits/s speed=0.0222x elapsed=0:04:17.61    \nframe=  346 fps=1.3 q=26.0 size=    4608KiB time=00:00:05.75 bitrate=6565.0kbits/s speed=0.0223x elapsed=0:04:18.13    \nframe=  348 fps=1.3 q=34.0 size=    4608KiB time=00:00:05.78 bitrate=6527.2kbits/s speed=0.0224x elapsed=0:04:18.65    \nframe=  348 fps=1.3 q=34.0 size=    4608KiB time=00:00:05.78 bitrate=6527.2kbits/s speed=0.0223x elapsed=0:04:19.15    \nframe=  349 fps=1.3 q=35.0 size=    4608KiB time=00:00:05.80 bitrate=6508.4kbits/s speed=0.0223x elapsed=0:04:19.67    \nframe=  350 fps=1.3 q=32.0 size=    4608KiB time=00:00:05.81 bitrate=6489.8kbits/s speed=0.0224x elapsed=0:04:20.20    \nframe=  352 fps=1.4 q=32.0 size=    4608KiB time=00:00:05.85 bitrate=6452.8kbits/s speed=0.0224x elapsed=0:04:20.71    \nframe=  352 fps=1.3 q=32.0 size=    4608KiB time=00:00:05.85 bitrate=6452.8kbits/s speed=0.0224x elapsed=0:04:21.22    \nframe=  353 fps=1.3 q=34.0 size=    4608KiB time=00:00:05.86 bitrate=6434.4kbits/s speed=0.0224x elapsed=0:04:21.77    \nframe=  355 fps=1.4 q=35.0 size=    4608KiB time=00:00:05.90 bitrate=6398.1kbits/s speed=0.0225x elapsed=0:04:22.36    \nframe=  356 fps=1.4 q=34.0 size=    4608KiB time=00:00:05.91 bitrate=6380.1kbits/s speed=0.0225x elapsed=0:04:22.95    \nframe=  358 fps=1.4 q=32.0 size=    4608KiB time=00:00:05.95 bitrate=6344.3kbits/s speed=0.0226x elapsed=0:04:23.52    \nframe=  359 fps=1.4 q=35.0 size=    4608KiB time=00:00:05.96 bitrate=6326.6kbits/s speed=0.0226x elapsed=0:04:24.08    \nframe=  359 fps=1.4 q=35.0 size=    4608KiB time=00:00:05.96 bitrate=6326.6kbits/s speed=0.0225x elapsed=0:04:24.66    \nframe=  360 fps=1.4 q=34.0 size=    4608KiB time=00:00:05.98 bitrate=6309.0kbits/s speed=0.0226x elapsed=0:04:25.17    \nframe=  361 fps=1.4 q=35.0 size=    4608KiB time=00:00:05.98 bitrate=6309.0kbits/s speed=0.0225x elapsed=0:04:25.73    \nframe=  363 fps=1.4 q=35.0 size=    4608KiB time=00:00:06.03 bitrate=6256.7kbits/s speed=0.0227x elapsed=0:04:26.30    \nframe=  364 fps=1.4 q=34.0 size=    4608KiB time=00:00:06.05 bitrate=6239.5kbits/s speed=0.0227x elapsed=0:04:26.87    \nframe=  365 fps=1.4 q=32.0 size=    4608KiB time=00:00:06.05 bitrate=6239.5kbits/s speed=0.0226x elapsed=0:04:27.39    \nframe=  366 fps=1.4 q=32.0 size=    4608KiB time=00:00:06.08 bitrate=6205.3kbits/s speed=0.0227x elapsed=0:04:27.95    \nframe=  368 fps=1.4 q=32.0 size=    4608KiB time=00:00:06.11 bitrate=6171.5kbits/s speed=0.0228x elapsed=0:04:28.47    \nframe=  370 fps=1.4 q=17.0 size=    4608KiB time=00:00:06.15 bitrate=6138.0kbits/s speed=0.0229x elapsed=0:04:29.00    \nframe=  371 fps=1.4 q=35.0 size=    4608KiB time=00:00:06.16 bitrate=6121.4kbits/s speed=0.0229x elapsed=0:04:29.57    \nframe=  372 fps=1.4 q=34.0 size=    4608KiB time=00:00:06.18 bitrate=6104.9kbits/s speed=0.0229x elapsed=0:04:30.10    \nframe=  373 fps=1.4 q=35.0 size=    4608KiB time=00:00:06.20 bitrate=6088.5kbits/s speed=0.0229x elapsed=0:04:30.67    \nframe=  374 fps=1.4 q=32.0 size=    4608KiB time=00:00:06.21 bitrate=6072.2kbits/s speed=0.0229x elapsed=0:04:31.20    \nframe=  375 fps=1.4 q=35.0 size=    4608KiB time=00:00:06.23 bitrate=6055.9kbits/s speed=0.0229x elapsed=0:04:31.82    \nframe=  375 fps=1.4 q=35.0 size=    4608KiB time=00:00:06.23 bitrate=6055.9kbits/s speed=0.0229x elapsed=0:04:32.33    \nframe=  375 fps=1.4 q=35.0 size=    4608KiB time=00:00:06.23 bitrate=6055.9kbits/s speed=0.0228x elapsed=0:04:32.84    \nframe=  375 fps=1.4 q=35.0 size=    4608KiB time=00:00:06.23 bitrate=6055.9kbits/s speed=0.0228x elapsed=0:04:33.38    \nframe=  376 fps=1.4 q=34.0 size=    4608KiB time=00:00:06.25 bitrate=6039.8kbits/s speed=0.0228x elapsed=0:04:33.94    \nframe=  376 fps=1.4 q=34.0 size=    4608KiB time=00:00:06.25 bitrate=6039.8kbits/s speed=0.0228x elapsed=0:04:34.47    \nframe=  377 fps=1.4 q=35.0 size=    4608KiB time=00:00:06.26 bitrate=6023.7kbits/s speed=0.0228x elapsed=0:04:35.01    \nframe=  379 fps=1.4 q=34.0 size=    4608KiB time=00:00:06.30 bitrate=5991.9kbits/s speed=0.0229x elapsed=0:04:35.57    \nframe=  380 fps=1.4 q=32.0 size=    4608KiB time=00:00:06.31 bitrate=5976.1kbits/s speed=0.0229x elapsed=0:04:36.21    \nframe=  380 fps=1.4 q=32.0 size=    4608KiB time=00:00:06.31 bitrate=5976.1kbits/s speed=0.0228x elapsed=0:04:36.78    \nframe=  382 fps=1.4 q=28.0 size=    4608KiB time=00:00:06.35 bitrate=5944.7kbits/s speed=0.0229x elapsed=0:04:37.34    \nframe=  384 fps=1.4 q=32.0 size=    4608KiB time=00:00:06.38 bitrate=5913.6kbits/s speed=0.023x elapsed=0:04:37.87    \nframe=  386 fps=1.4 q=19.0 size=    4608KiB time=00:00:06.41 bitrate=5882.9kbits/s speed=0.023x elapsed=0:04:38.44    \nframe=  387 fps=1.4 q=36.0 size=    4608KiB time=00:00:06.43 bitrate=5867.7kbits/s speed=0.0231x elapsed=0:04:38.97    \nframe=  390 fps=1.4 q=35.0 size=    4608KiB time=00:00:06.48 bitrate=5822.4kbits/s speed=0.0232x elapsed=0:04:39.49    \nframe=  391 fps=1.4 q=36.0 size=    4608KiB time=00:00:06.50 bitrate=5807.5kbits/s speed=0.0232x elapsed=0:04:40.05    \nframe=  392 fps=1.4 q=36.0 size=    4608KiB time=00:00:06.51 bitrate=5792.6kbits/s speed=0.0232x elapsed=0:04:40.57    \nframe=  393 fps=1.4 q=28.0 size=    4608KiB time=00:00:06.51 bitrate=5792.6kbits/s speed=0.0232x elapsed=0:04:41.15    \nframe=  394 fps=1.4 q=27.0 size=    4608KiB time=00:00:06.53 bitrate=5777.9kbits/s speed=0.0232x elapsed=0:04:41.69    \nframe=  396 fps=1.4 q=35.0 size=    4608KiB time=00:00:06.58 bitrate=5734.0kbits/s speed=0.0233x elapsed=0:04:42.31    \nframe=  396 fps=1.4 q=35.0 size=    4608KiB time=00:00:06.58 bitrate=5734.0kbits/s speed=0.0233x elapsed=0:04:42.87    \nframe=  397 fps=1.4 q=36.0 size=    4608KiB time=00:00:06.60 bitrate=5719.5kbits/s speed=0.0233x elapsed=0:04:43.45    \nframe=  399 fps=1.4 q=34.0 size=    4608KiB time=00:00:06.63 bitrate=5690.8kbits/s speed=0.0234x elapsed=0:04:44.01    \nframe=  400 fps=1.4 q=32.0 size=    4608KiB time=00:00:06.65 bitrate=5676.5kbits/s speed=0.0234x elapsed=0:04:44.54    \nframe=  402 fps=1.4 q=18.0 size=    4608KiB time=00:00:06.68 bitrate=5648.2kbits/s speed=0.0234x elapsed=0:04:45.10    \nframe=  403 fps=1.4 q=35.0 size=    4608KiB time=00:00:06.70 bitrate=5634.1kbits/s speed=0.0235x elapsed=0:04:45.66    \nframe=  404 fps=1.4 q=34.0 size=    4608KiB time=00:00:06.71 bitrate=5620.2kbits/s speed=0.0235x elapsed=0:04:46.21    \nframe=  406 fps=1.4 q=33.0 size=    4608KiB time=00:00:06.73 bitrate=5606.2kbits/s speed=0.0235x elapsed=0:04:46.74    \nframe=  407 fps=1.4 q=35.0 size=    4608KiB time=00:00:06.76 bitrate=5578.6kbits/s speed=0.0236x elapsed=0:04:47.27    \nframe=  407 fps=1.4 q=35.0 size=    4608KiB time=00:00:06.76 bitrate=5578.6kbits/s speed=0.0235x elapsed=0:04:47.83    \nframe=  408 fps=1.4 q=34.0 size=    4608KiB time=00:00:06.78 bitrate=5564.9kbits/s speed=0.0235x elapsed=0:04:48.34    \nframe=  409 fps=1.4 q=35.0 size=    4608KiB time=00:00:06.80 bitrate=5551.3kbits/s speed=0.0235x elapsed=0:04:48.94    \nframe=  410 fps=1.4 q=28.0 size=    4608KiB time=00:00:06.81 bitrate=5537.7kbits/s speed=0.0235x elapsed=0:04:49.54    \nframe=  412 fps=1.4 q=34.0 size=    4608KiB time=00:00:06.85 bitrate=5510.8kbits/s speed=0.0236x elapsed=0:04:50.13    \nframe=  413 fps=1.4 q=35.0 size=    4608KiB time=00:00:06.86 bitrate=5497.4kbits/s speed=0.0236x elapsed=0:04:50.66    \nframe=  415 fps=1.4 q=35.0 size=    4608KiB time=00:00:06.90 bitrate=5470.8kbits/s speed=0.0237x elapsed=0:04:51.19    \nframe=  416 fps=1.4 q=34.0 size=    4608KiB time=00:00:06.91 bitrate=5457.6kbits/s speed=0.0237x elapsed=0:04:51.76    \nframe=  416 fps=1.4 q=34.0 size=    4608KiB time=00:00:06.91 bitrate=5457.6kbits/s speed=0.0237x elapsed=0:04:52.33    \nframe=  417 fps=1.4 q=35.0 size=    4608KiB time=00:00:06.93 bitrate=5444.5kbits/s speed=0.0237x elapsed=0:04:52.87    \nframe=  418 fps=1.4 q=19.0 size=    4608KiB time=00:00:06.95 bitrate=5431.5kbits/s speed=0.0237x elapsed=0:04:53.39    \nframe=  419 fps=1.4 q=35.0 size=    4608KiB time=00:00:06.96 bitrate=5418.5kbits/s speed=0.0237x elapsed=0:04:53.92    \nframe=  420 fps=1.4 q=34.0 size=    4608KiB time=00:00:06.98 bitrate=5405.5kbits/s speed=0.0237x elapsed=0:04:54.45    \nframe=  421 fps=1.4 q=35.0 size=    4608KiB time=00:00:07.00 bitrate=5392.7kbits/s speed=0.0237x elapsed=0:04:54.97    \nframe=  423 fps=1.4 q=35.0 size=    4608KiB time=00:00:07.01 bitrate=5379.9kbits/s speed=0.0237x elapsed=0:04:55.48    \nframe=  423 fps=1.4 q=35.0 size=    4608KiB time=00:00:07.03 bitrate=5367.1kbits/s speed=0.0238x elapsed=0:04:56.00    \nframe=  424 fps=1.4 q=34.0 size=    4608KiB time=00:00:07.05 bitrate=5354.4kbits/s speed=0.0238x elapsed=0:04:56.55    \nframe=  425 fps=1.4 q=26.0 size=    4608KiB time=00:00:07.05 bitrate=5354.4kbits/s speed=0.0237x elapsed=0:04:57.07    \nframe=  426 fps=1.4 q=27.0 size=    4608KiB time=00:00:07.08 bitrate=5329.2kbits/s speed=0.0238x elapsed=0:04:57.64    \nframe=  427 fps=1.4 q=35.0 size=    4608KiB time=00:00:07.10 bitrate=5316.7kbits/s speed=0.0238x elapsed=0:04:58.21    \nframe=  428 fps=1.4 q=34.0 size=    4608KiB time=00:00:07.11 bitrate=5304.3kbits/s speed=0.0238x elapsed=0:04:58.77    \nframe=  430 fps=1.4 q=32.0 size=    4608KiB time=00:00:07.15 bitrate=5279.5kbits/s speed=0.0239x elapsed=0:04:59.32    \nframe=  432 fps=1.4 q=34.0 size=    4608KiB time=00:00:07.18 bitrate=5255.0kbits/s speed=0.024x elapsed=0:04:59.88    \nframe=  434 fps=1.4 q=18.0 size=    4608KiB time=00:00:07.21 bitrate=5230.8kbits/s speed=0.024x elapsed=0:05:00.43    \nframe=  435 fps=1.4 q=35.0 size=    4608KiB time=00:00:07.23 bitrate=5218.7kbits/s speed=0.024x elapsed=0:05:00.94    \nframe=  436 fps=1.4 q=34.0 size=    4608KiB time=00:00:07.25 bitrate=5206.7kbits/s speed=0.024x elapsed=0:05:01.52    \nframe=  437 fps=1.4 q=35.0 size=    4608KiB time=00:00:07.26 bitrate=5194.8kbits/s speed=0.0241x elapsed=0:05:02.06    \nframe=  438 fps=1.4 q=33.0 size=    4608KiB time=00:00:07.28 bitrate=5182.9kbits/s speed=0.0241x elapsed=0:05:02.62    \nframe=  438 fps=1.4 q=33.0 size=    4608KiB time=00:00:07.28 bitrate=5182.9kbits/s speed=0.024x elapsed=0:05:03.20    \nframe=  440 fps=1.4 q=34.0 size=    4608KiB time=00:00:07.31 bitrate=5159.3kbits/s speed=0.0241x elapsed=0:05:03.76    \nframe=  441 fps=1.4 q=35.0 size=    4608KiB time=00:00:07.33 bitrate=5147.6kbits/s speed=0.0241x elapsed=0:05:04.38    \nframe=  442 fps=1.4 q=26.0 size=    4608KiB time=00:00:07.35 bitrate=5135.9kbits/s speed=0.0241x elapsed=0:05:05.01    \nframe=  444 fps=1.5 q=34.0 size=    4608KiB time=00:00:07.38 bitrate=5112.7kbits/s speed=0.0242x elapsed=0:05:05.62    \nframe=  445 fps=1.5 q=35.0 size=    4608KiB time=00:00:07.38 bitrate=5112.7kbits/s speed=0.0241x elapsed=0:05:06.20    \nframe=  446 fps=1.5 q=32.0 size=    4608KiB time=00:00:07.41 bitrate=5089.7kbits/s speed=0.0242x elapsed=0:05:06.82    \nframe=  448 fps=1.5 q=30.0 size=    4608KiB time=00:00:07.45 bitrate=5066.9kbits/s speed=0.0242x elapsed=0:05:07.43    \nframe=  450 fps=1.5 q=16.0 size=    4608KiB time=00:00:07.48 bitrate=5044.4kbits/s speed=0.0243x elapsed=0:05:08.00    \nframe=  451 fps=1.5 q=34.0 size=    4608KiB time=00:00:07.50 bitrate=5033.2kbits/s speed=0.0243x elapsed=0:05:08.55    \nframe=  453 fps=1.5 q=34.0 size=    4608KiB time=00:00:07.53 bitrate=5010.9kbits/s speed=0.0244x elapsed=0:05:09.10    \nframe=  455 fps=1.5 q=34.0 size=    4608KiB time=00:00:07.56 bitrate=4988.8kbits/s speed=0.0244x elapsed=0:05:09.68    \nframe=  455 fps=1.5 q=34.0 size=    4608KiB time=00:00:07.56 bitrate=4988.8kbits/s speed=0.0244x elapsed=0:05:10.32    \nframe=  456 fps=1.5 q=34.0 size=    4608KiB time=00:00:07.58 bitrate=4977.9kbits/s speed=0.0244x elapsed=0:05:10.83    \nframe=  456 fps=1.5 q=34.0 size=    4608KiB time=00:00:07.58 bitrate=4977.9kbits/s speed=0.0244x elapsed=0:05:11.35    \nframe=  458 fps=1.5 q=26.0 size=    4608KiB time=00:00:07.61 bitrate=4956.1kbits/s speed=0.0244x elapsed=0:05:11.87    \nframe=  460 fps=1.5 q=33.0 size=    4608KiB time=00:00:07.65 bitrate=4934.5kbits/s speed=0.0245x elapsed=0:05:12.38    \nframe=  461 fps=1.5 q=34.0 size=    4608KiB time=00:00:07.66 bitrate=4923.7kbits/s speed=0.0245x elapsed=0:05:12.90    \nframe=  462 fps=1.5 q=32.0 size=    4608KiB time=00:00:07.68 bitrate=4913.1kbits/s speed=0.0245x elapsed=0:05:13.42    \nframe=  463 fps=1.5 q=32.0 size=    4608KiB time=00:00:07.70 bitrate=4902.4kbits/s speed=0.0245x elapsed=0:05:13.92    \nframe=  464 fps=1.5 q=30.0 size=    4608KiB time=00:00:07.71 bitrate=4891.8kbits/s speed=0.0245x elapsed=0:05:14.44    \nframe=  465 fps=1.5 q=32.0 size=    4608KiB time=00:00:07.73 bitrate=4881.3kbits/s speed=0.0246x elapsed=0:05:14.95    \nframe=  466 fps=1.5 q=16.0 size=    4608KiB time=00:00:07.75 bitrate=4870.8kbits/s speed=0.0246x elapsed=0:05:15.48    \nframe=  467 fps=1.5 q=34.0 size=    4608KiB time=00:00:07.76 bitrate=4860.4kbits/s speed=0.0246x elapsed=0:05:15.99    \nframe=  469 fps=1.5 q=34.0 size=    4608KiB time=00:00:07.80 bitrate=4839.6kbits/s speed=0.0246x elapsed=0:05:16.51    \nframe=  471 fps=1.5 q=34.0 size=    4608KiB time=00:00:07.83 bitrate=4819.0kbits/s speed=0.0247x elapsed=0:05:17.01    \nframe=  471 fps=1.5 q=34.0 size=    4608KiB time=00:00:07.83 bitrate=4819.0kbits/s speed=0.0247x elapsed=0:05:17.54    \nframe=  472 fps=1.5 q=34.0 size=    4608KiB time=00:00:07.85 bitrate=4808.8kbits/s speed=0.0247x elapsed=0:05:18.05    \nframe=  472 fps=1.5 q=34.0 size=    4608KiB time=00:00:07.85 bitrate=4808.8kbits/s speed=0.0246x elapsed=0:05:18.56    \nframe=  473 fps=1.5 q=34.0 size=    4608KiB time=00:00:07.86 bitrate=4798.6kbits/s speed=0.0247x elapsed=0:05:19.07    \nframe=  476 fps=1.5 q=33.0 size=    4608KiB time=00:00:07.91 bitrate=4768.3kbits/s speed=0.0248x elapsed=0:05:19.60    \nframe=  477 fps=1.5 q=34.0 size=    4608KiB time=00:00:07.93 bitrate=4758.2kbits/s speed=0.0248x elapsed=0:05:20.11    \nframe=  478 fps=1.5 q=32.0 size=    4608KiB time=00:00:07.95 bitrate=4748.3kbits/s speed=0.0248x elapsed=0:05:20.63    \nframe=  480 fps=1.5 q=30.0 size=    4608KiB time=00:00:07.98 bitrate=4728.4kbits/s speed=0.0249x elapsed=0:05:21.14    \nframe=  480 fps=1.5 q=30.0 size=    4608KiB time=00:00:07.98 bitrate=4728.4kbits/s speed=0.0248x elapsed=0:05:21.66    \nframe=  482 fps=1.5 q=15.0 size=    4608KiB time=00:00:08.01 bitrate=4708.8kbits/s speed=0.0249x elapsed=0:05:22.18    \nframe=  483 fps=1.5 q=34.0 size=    4608KiB time=00:00:08.03 bitrate=4699.0kbits/s speed=0.0249x elapsed=0:05:22.69    \nframe=  483 fps=1.5 q=34.0 size=    4608KiB time=00:00:08.03 bitrate=4699.0kbits/s speed=0.0249x elapsed=0:05:23.20    \nframe=  485 fps=1.5 q=34.0 size=    4608KiB time=00:00:08.06 bitrate=4679.6kbits/s speed=0.0249x elapsed=0:05:23.71    \nframe=  487 fps=1.5 q=34.0 size=    4608KiB time=00:00:08.10 bitrate=4660.3kbits/s speed=0.025x elapsed=0:05:24.24    \nframe=  487 fps=1.5 q=34.0 size=    4608KiB time=00:00:08.10 bitrate=4660.3kbits/s speed=0.0249x elapsed=0:05:24.75    \nframe=  488 fps=1.5 q=34.0 size=    4608KiB time=00:00:08.11 bitrate=4650.8kbits/s speed=0.025x elapsed=0:05:25.27    \nframe=  489 fps=1.5 q=34.0 size=    4608KiB time=00:00:08.13 bitrate=4641.2kbits/s speed=0.025x elapsed=0:05:25.79    \nframe=  490 fps=1.5 q=25.0 size=    4608KiB time=00:00:08.15 bitrate=4631.7kbits/s speed=0.025x elapsed=0:05:26.31    \nframe=  492 fps=1.5 q=33.0 size=    4608KiB time=00:00:08.18 bitrate=4612.9kbits/s speed=0.025x elapsed=0:05:26.81    \nframe=  493 fps=1.5 q=34.0 size=    4608KiB time=00:00:08.20 bitrate=4603.5kbits/s speed=0.0251x elapsed=0:05:27.34    \nframe=  494 fps=1.5 q=32.0 size=    4608KiB time=00:00:08.21 bitrate=4594.2kbits/s speed=0.0251x elapsed=0:05:27.85    \nframe=  496 fps=1.5 q=33.0 size=    4608KiB time=00:00:08.25 bitrate=4575.6kbits/s speed=0.0251x elapsed=0:05:28.36    \nframe=  498 fps=1.5 q=16.0 size=    4608KiB time=00:00:08.28 bitrate=4557.2kbits/s speed=0.0252x elapsed=0:05:28.88    \nframe=  499 fps=1.5 q=34.0 size=    4608KiB time=00:00:08.30 bitrate=4548.0kbits/s speed=0.0252x elapsed=0:05:29.39    \nframe=  500 fps=1.5 q=34.0 size=    4608KiB time=00:00:08.31 bitrate=4538.9kbits/s speed=0.0252x elapsed=0:05:29.91    \nframe=  502 fps=1.5 q=33.0 size=    4608KiB time=00:00:08.35 bitrate=4520.8kbits/s speed=0.0253x elapsed=0:05:30.42    \nframe=  502 fps=1.5 q=33.0 size=    4608KiB time=00:00:08.35 bitrate=4520.8kbits/s speed=0.0252x elapsed=0:05:30.94    \nframe=  506 fps=1.5 q=26.0 size=    4608KiB time=00:00:08.41 bitrate=4485.0kbits/s speed=0.0254x elapsed=0:05:31.45    \nframe=  508 fps=1.5 q=32.0 size=    4608KiB time=00:00:08.45 bitrate=4467.3kbits/s speed=0.0255x elapsed=0:05:31.98    \nframe=  510 fps=1.5 q=30.0 size=    4608KiB time=00:00:08.48 bitrate=4449.8kbits/s speed=0.0255x elapsed=0:05:32.49    \nframe=  510 fps=1.5 q=30.0 size=    4608KiB time=00:00:08.48 bitrate=4449.8kbits/s speed=0.0255x elapsed=0:05:33.00    \nframe=  510 fps=1.5 q=30.0 size=    4608KiB time=00:00:08.48 bitrate=4449.8kbits/s speed=0.0254x elapsed=0:05:33.52    \nframe=  512 fps=1.5 q=24.0 size=    4608KiB time=00:00:08.51 bitrate=4432.3kbits/s speed=0.0255x elapsed=0:05:34.04    \nframe=  514 fps=1.5 q=17.0 size=    4608KiB time=00:00:08.55 bitrate=4415.1kbits/s speed=0.0256x elapsed=0:05:34.55    \nframe=  516 fps=1.5 q=35.0 size=    4608KiB time=00:00:08.58 bitrate=4397.9kbits/s speed=0.0256x elapsed=0:05:35.06    \nframe=  518 fps=1.5 q=33.0 size=    4608KiB time=00:00:08.61 bitrate=4380.9kbits/s speed=0.0257x elapsed=0:05:35.59    \nframe=  518 fps=1.5 q=33.0 size=    4608KiB time=00:00:08.61 bitrate=4380.9kbits/s speed=0.0256x elapsed=0:05:36.10    \nframe=  522 fps=1.6 q=24.0 size=    4608KiB time=00:00:08.68 bitrate=4347.3kbits/s speed=0.0258x elapsed=0:05:36.61    \nframe=  522 fps=1.5 q=24.0 size=    4608KiB time=00:00:08.68 bitrate=4347.3kbits/s speed=0.0258x elapsed=0:05:37.13    \nframe=  524 fps=1.6 q=33.0 size=    4608KiB time=00:00:08.71 bitrate=4330.6kbits/s speed=0.0258x elapsed=0:05:37.69    \nframe=  526 fps=1.6 q=31.0 size=    4608KiB time=00:00:08.75 bitrate=4314.1kbits/s speed=0.0259x elapsed=0:05:38.24    \nframe=  528 fps=1.6 q=31.0 size=    4608KiB time=00:00:08.78 bitrate=4297.8kbits/s speed=0.0259x elapsed=0:05:38.76    \nframe=  530 fps=1.6 q=13.0 size=    4608KiB time=00:00:08.81 bitrate=4281.5kbits/s speed=0.026x elapsed=0:05:39.32    \nframe=  532 fps=1.6 q=33.0 size=    4608KiB time=00:00:08.85 bitrate=4265.4kbits/s speed=0.026x elapsed=0:05:39.85    \nframe=  534 fps=1.6 q=31.0 size=    4608KiB time=00:00:08.88 bitrate=4249.4kbits/s speed=0.0261x elapsed=0:05:40.37    \nframe=  534 fps=1.6 q=31.0 size=    4608KiB time=00:00:08.88 bitrate=4249.4kbits/s speed=0.0261x elapsed=0:05:40.89    \nframe=  536 fps=1.6 q=33.0 size=    4608KiB time=00:00:08.91 bitrate=4233.5kbits/s speed=0.0261x elapsed=0:05:41.42    \nframe=  538 fps=1.6 q=26.0 size=    4608KiB time=00:00:08.95 bitrate=4217.7kbits/s speed=0.0262x elapsed=0:05:41.95    \nframe=  538 fps=1.6 q=26.0 size=    4608KiB time=00:00:08.95 bitrate=4217.7kbits/s speed=0.0261x elapsed=0:05:42.47    \nframe=  538 fps=1.6 q=26.0 size=    4608KiB time=00:00:08.95 bitrate=4217.7kbits/s speed=0.0261x elapsed=0:05:43.04    \nframe=  540 fps=1.6 q=33.0 size=    4608KiB time=00:00:08.98 bitrate=4202.1kbits/s speed=0.0261x elapsed=0:05:43.62    \nframe=  542 fps=1.6 q=31.0 size=    4608KiB time=00:00:09.01 bitrate=4186.6kbits/s speed=0.0262x elapsed=0:05:44.21    \nframe=  542 fps=1.6 q=31.0 size=    4608KiB time=00:00:09.01 bitrate=4186.6kbits/s speed=0.0261x elapsed=0:05:44.80    \nframe=  544 fps=1.6 q=31.0 size=    4608KiB time=00:00:09.05 bitrate=4171.1kbits/s speed=0.0262x elapsed=0:05:45.33    \nframe=  546 fps=1.6 q=16.0 size=    4608KiB time=00:00:09.08 bitrate=4155.8kbits/s speed=0.0263x elapsed=0:05:45.85    \nframe=  546 fps=1.6 q=16.0 size=    4608KiB time=00:00:09.08 bitrate=4155.8kbits/s speed=0.0262x elapsed=0:05:46.36    \nframe=  550 fps=1.6 q=33.0 size=    4608KiB time=00:00:09.15 bitrate=4125.5kbits/s speed=0.0264x elapsed=0:05:46.88    \nframe=  550 fps=1.6 q=33.0 size=    4608KiB time=00:00:09.15 bitrate=4125.5kbits/s speed=0.0263x elapsed=0:05:47.39    \nframe=  552 fps=1.6 q=34.0 size=    4608KiB time=00:00:09.18 bitrate=4110.6kbits/s speed=0.0264x elapsed=0:05:47.90    \nframe=  554 fps=1.6 q=26.0 size=    4608KiB time=00:00:09.21 bitrate=4095.7kbits/s speed=0.0265x elapsed=0:05:48.43    \nframe=  554 fps=1.6 q=26.0 size=    4608KiB time=00:00:09.21 bitrate=4095.7kbits/s speed=0.0264x elapsed=0:05:48.94    \nframe=  558 fps=1.6 q=32.0 size=    4608KiB time=00:00:09.28 bitrate=4066.3kbits/s speed=0.0266x elapsed=0:05:49.45    \nframe=  558 fps=1.6 q=32.0 size=    4608KiB time=00:00:09.28 bitrate=4066.3kbits/s speed=0.0265x elapsed=0:05:49.97    \nframe=  560 fps=1.6 q=34.0 size=    4608KiB time=00:00:09.31 bitrate=4051.7kbits/s speed=0.0266x elapsed=0:05:50.49    \nframe=  562 fps=1.6 q=16.0 size=    4608KiB time=00:00:09.35 bitrate=4037.3kbits/s speed=0.0266x elapsed=0:05:51.01    \nframe=  562 fps=1.6 q=16.0 size=    4608KiB time=00:00:09.35 bitrate=4037.3kbits/s speed=0.0266x elapsed=0:05:51.52    \nframe=  564 fps=1.6 q=32.0 size=    4608KiB time=00:00:09.38 bitrate=4023.0kbits/s speed=0.0267x elapsed=0:05:52.04    \nframe=  566 fps=1.6 q=30.0 size=    4608KiB time=00:00:09.41 bitrate=4008.7kbits/s speed=0.0267x elapsed=0:05:52.56    \nframe=  568 fps=1.6 q=32.0 size=    4608KiB time=00:00:09.45 bitrate=3994.6kbits/s speed=0.0268x elapsed=0:05:53.08    \nframe=  570 fps=1.6 q=26.0 size=    4608KiB time=00:00:09.48 bitrate=3980.5kbits/s speed=0.0268x elapsed=0:05:53.60    \nframe=  570 fps=1.6 q=26.0 size=    4608KiB time=00:00:09.48 bitrate=3980.5kbits/s speed=0.0268x elapsed=0:05:54.12    \nframe=  570 fps=1.6 q=26.0 size=    4608KiB time=00:00:09.48 bitrate=3980.5kbits/s speed=0.0267x elapsed=0:05:54.62    \nframe=  572 fps=1.6 q=33.0 size=    4608KiB time=00:00:09.51 bitrate=3966.6kbits/s speed=0.0268x elapsed=0:05:55.14    \nframe=  574 fps=1.6 q=30.0 size=    4608KiB time=00:00:09.55 bitrate=3952.7kbits/s speed=0.0269x elapsed=0:05:55.66    \nframe=  574 fps=1.6 q=30.0 size=    4608KiB time=00:00:09.55 bitrate=3952.7kbits/s speed=0.0268x elapsed=0:05:56.17    \nframe=  578 fps=1.6 q=17.0 size=    4608KiB time=00:00:09.61 bitrate=3925.3kbits/s speed=0.027x elapsed=0:05:56.70    \nframe=  580 fps=1.6 q=34.0 size=    4608KiB time=00:00:09.65 bitrate=3911.8kbits/s speed=0.027x elapsed=0:05:57.21    \nframe=  582 fps=1.6 q=34.0 size=    4608KiB time=00:00:09.68 bitrate=3898.3kbits/s speed=0.0271x elapsed=0:05:57.72    \nframe=  582 fps=1.6 q=34.0 size=    4608KiB time=00:00:09.68 bitrate=3898.3kbits/s speed=0.027x elapsed=0:05:58.24    \nframe=  586 fps=1.6 q=27.0 size=    4608KiB time=00:00:09.75 bitrate=3871.7kbits/s speed=0.0272x elapsed=0:05:58.75    \nframe=  586 fps=1.6 q=27.0 size=    4608KiB time=00:00:09.75 bitrate=3871.7kbits/s speed=0.0271x elapsed=0:05:59.27    \nframe=  586 fps=1.6 q=27.0 size=    4608KiB time=00:00:09.75 bitrate=3871.7kbits/s speed=0.0271x elapsed=0:05:59.79    \nframe=  586 fps=1.6 q=27.0 size=    4608KiB time=00:00:09.75 bitrate=3871.7kbits/s speed=0.0271x elapsed=0:06:00.32    \nframe=  590 fps=1.6 q=34.0 size=    4608KiB time=00:00:09.81 bitrate=3845.4kbits/s speed=0.0272x elapsed=0:06:00.83    \nframe=  590 fps=1.6 q=34.0 size=    4608KiB time=00:00:09.81 bitrate=3845.4kbits/s speed=0.0272x elapsed=0:06:01.34    \n[out#0/matroska @ 0000024cd3728ec0] video:7518KiB audio:0KiB subtitle:0KiB other streams:0KiB global headers:0KiB muxing overhead: 0.044828%\nframe=  600 fps=1.7 q=32.0 Lsize=    7521KiB time=00:00:09.98 bitrate=6171.6kbits/s speed=0.0276x elapsed=0:06:01.85    \n",
  "seconds": 364.5259757041931,
  "probe_out": {}
}